<?xml version="1.0" standalone="no"?>
<!DOCTYPE svg PUBLIC "-//W3C//DTD SVG 20010904//EN"
 "http://www.w3.org/TR/2001/REC-SVG-20010904/DTD/svg10.dtd">
<svg version="1.0" xmlns="http://www.w3.org/2000/svg"
 width="1280.000000pt" height="1280.000000pt" viewBox="0 0 1280.000000 1280.000000"
 preserveAspectRatio="xMidYMid meet">
<metadata>
Created by potrace 1.15, written by Peter Selinger 2001-2017
</metadata>
<g transform="translate(0.000000,1280.000000) scale(0.100000,-0.100000)"
fill="#000000" stroke="none">
<path d="M6442 12144 c-38 -16 -72 -67 -72 -106 0 -44 -20 -78 -47 -78 -13 0
-39 -6 -57 -14 -48 -20 -52 -50 -20 -149 38 -118 48 -157 83 -316 12 -51 18
-97 15 -102 -8 -13 -63 -11 -183 6 -144 21 -243 57 -328 121 -41 31 -45 30
-62 -8 -14 -31 -39 -57 -178 -190 -71 -67 -98 -116 -89 -166 7 -46 32 -71 116
-117 48 -26 70 -44 70 -57 0 -10 9 -36 20 -58 11 -22 20 -48 20 -60 0 -27 15
-25 86 9 115 55 152 69 246 95 90 25 239 20 286 -10 3 -2 -19 -97 -57 -254 -5
-19 -15 -64 -22 -99 -9 -39 -19 -65 -29 -68 -83 -26 -127 -52 -199 -118 -47
-43 -94 -78 -117 -85 -53 -17 -70 -34 -84 -84 -7 -24 -30 -66 -52 -92 -59 -74
-61 -76 -88 -119 -47 -74 -64 -121 -85 -234 -8 -46 -15 -111 -15 -146 0 -86
30 -243 61 -320 4 -11 24 -67 44 -125 20 -58 40 -115 45 -127 5 -12 6 -25 1
-27 -5 -3 -69 -7 -144 -8 -118 -3 -138 -1 -153 14 -17 16 -16 20 9 72 32 65
33 75 7 125 -24 48 -70 88 -135 116 -102 45 -160 40 -211 -17 -22 -23 -104
-155 -104 -167 -1 -11 -44 -55 -77 -79 -51 -36 -59 -30 -60 41 0 90 -31 151
-86 171 -104 38 -220 48 -272 24 -33 -15 -71 -93 -90 -185 -22 -103 -21 -102
-65 -96 -20 3 -53 0 -72 -6 -48 -16 -59 -9 -98 57 -118 201 -130 212 -246 212
-89 0 -136 -16 -190 -63 -48 -42 -78 -92 -100 -169 l-15 -48 -47 0 c-26 0 -65
-5 -87 -11 -89 -24 -91 -23 -108 13 -19 39 -49 69 -97 94 -53 29 -210 26 -266
-4 -57 -29 -114 -97 -115 -136 -2 -58 3 -101 12 -110 13 -14 11 -46 -3 -46 -7
0 -38 -13 -68 -30 -72 -38 -104 -38 -165 3 -60 40 -179 87 -220 87 -42 0 -132
-74 -173 -143 -42 -70 -51 -141 -28 -221 10 -32 16 -59 14 -61 -2 -1 -46 -23
-98 -48 -104 -51 -170 -60 -220 -32 -14 8 -30 14 -36 15 -17 0 -146 -122 -178
-169 -34 -48 -32 -91 7 -150 13 -20 27 -49 31 -65 6 -25 2 -33 -32 -62 -22
-18 -51 -57 -66 -87 -31 -65 -48 -80 -104 -96 -49 -14 -153 -90 -170 -124 -26
-51 -34 -110 -23 -171 18 -110 20 -139 14 -197 -4 -45 -10 -59 -27 -67 -22
-10 -33 -14 -136 -56 -60 -24 -67 -30 -90 -79 -38 -79 -34 -173 9 -247 55 -94
74 -143 79 -198 4 -52 4 -54 -39 -90 -138 -118 -180 -192 -178 -311 2 -89 9
-102 78 -148 89 -59 121 -91 121 -124 0 -15 -5 -31 -10 -34 -7 -5 -8 -11 -1
-19 5 -6 11 -24 13 -40 3 -25 -1 -29 -51 -48 -97 -37 -161 -124 -169 -231 -8
-99 17 -136 163 -247 90 -68 125 -110 125 -149 0 -32 -31 -41 -140 -41 l-102
0 -41 -43 c-47 -47 -100 -75 -199 -103 l-68 -19 0 -38 c0 -34 22 -94 39 -107
17 -13 81 -98 81 -107 0 -6 7 -14 16 -17 33 -13 62 -5 93 25 40 38 56 33 56
-16 0 -33 5 -42 33 -61 40 -27 206 -59 262 -50 37 6 40 4 56 -26 9 -18 63 -80
119 -139 57 -58 115 -124 129 -146 38 -57 66 -140 66 -195 0 -47 1 -48 45 -68
80 -36 123 -84 226 -250 19 -30 54 -79 78 -109 l43 -53 -25 -52 c-32 -66 -50
-147 -42 -184 6 -29 59 -86 105 -113 30 -18 94 -38 134 -41 34 -3 45 -19 139
-208 74 -148 113 -235 139 -310 17 -52 120 -322 139 -365 10 -25 30 -86 58
-185 56 -190 63 -243 60 -426 l-4 -163 38 -50 c108 -141 315 -298 521 -395
158 -74 270 -113 391 -136 130 -25 169 -39 193 -70 l23 -30 110 0 c96 0 114
-3 147 -23 85 -52 110 -56 482 -87 203 -16 251 -25 318 -59 71 -36 88 -38 122
-12 23 19 25 19 60 2 25 -13 70 -20 160 -24 69 -4 211 -13 315 -22 428 -34
567 -40 1005 -40 639 0 1061 28 1570 104 36 5 115 17 175 25 130 18 207 32
255 45 19 6 51 14 70 19 19 6 82 27 140 47 156 55 195 63 326 70 143 7 206 20
259 52 52 31 162 83 175 83 6 0 18 4 28 9 9 6 51 22 92 37 97 34 153 67 212
122 l48 45 0 117 c0 95 4 126 19 157 28 58 38 97 56 228 20 151 31 191 65 235
24 31 40 63 70 135 5 11 18 49 30 85 12 36 28 79 35 95 56 127 96 204 117 230
14 17 46 62 70 101 62 96 108 133 165 132 23 0 69 8 102 18 l60 19 21 70 c12
39 26 83 31 99 14 46 11 71 -16 110 -14 20 -25 41 -25 45 0 4 27 25 60 45 86
53 162 133 199 207 30 63 61 162 61 198 0 18 76 90 131 123 l29 18 0 132 0
133 63 46 c34 25 109 79 167 119 223 157 336 314 355 495 4 33 9 68 11 77 6
20 -32 43 -88 53 -45 8 -78 38 -78 69 0 23 2 23 70 18 83 -6 118 6 161 55 87
99 107 322 35 387 -12 10 -41 32 -66 49 -138 94 -130 185 20 240 63 24 68 28
83 72 8 22 23 44 34 49 18 9 20 19 19 130 0 97 -3 124 -15 134 -9 7 -52 37
-96 67 -123 83 -115 72 -115 158 0 42 -4 79 -10 82 -22 14 -8 45 33 74 133 92
193 217 167 344 -7 34 -17 68 -23 74 -5 7 -44 32 -86 54 -151 83 -171 103
-242 245 -60 121 -62 127 -44 140 10 8 24 14 31 14 25 0 102 90 119 137 9 27
19 91 22 144 l6 95 -38 31 c-116 96 -282 137 -380 94 -26 -12 -49 -20 -50 -19
-1 2 -20 31 -43 65 -23 33 -58 75 -78 91 l-36 30 35 73 c18 41 40 93 47 117
12 39 12 47 -9 90 -64 134 -119 185 -222 209 -55 13 -69 12 -157 -7 -117 -26
-151 -20 -222 37 -8 7 -26 21 -40 31 -23 19 -24 22 -12 54 17 49 15 127 -7
173 -43 96 -181 175 -306 175 -43 0 -57 -6 -103 -40 -92 -70 -160 -97 -176
-71 -6 10 -91 36 -143 45 -18 3 -48 12 -67 20 l-36 15 0 100 0 101 -32 13
c-18 8 -64 34 -103 59 -93 59 -152 75 -208 57 -63 -20 -137 -99 -172 -184 -42
-102 -46 -107 -76 -92 -13 7 -60 21 -104 32 -44 10 -90 25 -102 32 -21 14 -21
16 -6 47 15 32 14 35 -16 90 -17 32 -31 65 -31 75 0 23 -16 36 -55 45 -16 4
-43 13 -60 20 -75 32 -89 36 -140 36 -50 0 -56 -3 -88 -40 -19 -23 -41 -60
-49 -83 -31 -87 -38 -114 -38 -139 0 -30 14 -28 -300 -47 -85 -6 -165 -13
-177 -17 -18 -5 -23 -2 -23 11 0 26 -45 100 -72 117 -64 42 -111 43 -198 6
-53 -23 -66 -27 -95 -33 -36 -7 -50 -26 -59 -82 -7 -41 -37 -83 -59 -83 -7 0
-21 7 -31 15 -14 10 -45 15 -102 15 -106 0 -116 10 -79 77 35 62 54 83 77 83
14 0 18 8 18 35 0 49 31 125 75 186 21 28 44 69 52 91 16 47 12 52 -48 62 -43
7 -50 20 -18 36 15 8 29 8 51 1 45 -16 61 -14 55 7 -11 39 -50 183 -73 270
-57 216 -143 374 -261 482 -107 98 -327 228 -438 258 -22 6 -62 14 -90 19 -44
7 -50 11 -47 30 4 28 -18 71 -53 103 -42 39 -65 93 -65 153 0 66 -23 125 -53
136 -44 17 -48 -9 -15 -89 l22 -53 -23 -65 c-31 -91 -96 -188 -140 -211 -35
-19 -43 -1 -21 45 36 72 60 207 74 412 4 62 4 64 -17 57 -12 -4 -105 -10 -207
-14 l-185 -7 -93 -43 c-71 -33 -99 -41 -122 -36 -37 8 -37 15 -1 54 50 53 162
98 266 106 96 8 138 23 155 55 6 11 9 20 8 21 -2 0 -43 1 -93 3 -78 2 -102 7
-182 40 -53 22 -103 36 -120 34 l-28 -3 0 -87 c0 -92 -11 -122 -38 -100 -8 7
-42 15 -76 19 -80 8 -92 20 -85 81 8 62 39 92 98 92 39 0 43 3 54 33 7 18 12
43 12 54 0 24 36 73 54 73 7 0 20 -8 30 -19 31 -34 158 -88 246 -104 182 -33
251 -41 268 -30 73 45 74 191 2 358 -39 92 -60 196 -46 230 11 26 11 26 33 8
11 -10 38 -47 58 -81 20 -34 47 -69 60 -78 37 -24 98 -29 114 -10 11 13 8 20
-18 47 -17 17 -31 32 -31 35 0 2 24 4 54 4 49 0 57 3 84 34 16 19 32 40 34 47
2 7 10 9 16 5 21 -13 13 -99 -19 -222 -38 -145 -48 -196 -48 -251 -1 -36 3
-45 32 -65 27 -20 44 -23 112 -22 82 0 98 5 310 99 50 22 99 27 120 11 18 -13
18 -15 -11 -42 -16 -16 -45 -38 -64 -49 -19 -11 -43 -26 -55 -32 -11 -7 -36
-13 -56 -13 -51 0 -102 -24 -119 -54 -12 -23 -11 -28 6 -47 48 -53 148 -65
208 -24 20 14 39 25 41 25 3 0 5 -16 5 -35 0 -25 6 -37 21 -46 32 -17 37 -1
26 80 -14 94 -2 121 63 137 28 7 45 16 44 25 -4 35 -45 183 -55 196 -25 30
-82 12 -233 -74 -112 -64 -168 -81 -228 -68 -71 16 -79 31 -58 117 29 120 59
232 89 333 12 38 21 78 21 87 0 22 -28 23 -76 3 -56 -23 -75 -8 -67 54 7 62
-16 99 -82 130 -53 25 -152 27 -203 5z m189 -70 c15 -13 17 -25 12 -63 -13
-99 -58 -141 -152 -144 -33 -1 -63 2 -68 6 -4 4 -2 32 4 62 13 61 63 141 96
156 30 12 85 4 108 -17z m-511 -1785 l5 -64 63 3 62 4 -2 -169 c-3 -161 -4
-168 -23 -165 -11 1 -80 -3 -152 -9 -143 -11 -173 -8 -173 20 0 31 27 46 60
34 l29 -11 3 97 3 96 48 3 47 3 0 75 c0 57 -3 76 -15 80 -20 8 -45 -13 -45
-37 0 -11 -6 -19 -14 -19 -46 0 -20 70 38 105 22 14 46 23 51 22 6 -2 12 -32
15 -68z m307 -19 c57 0 113 -24 120 -51 5 -19 11 -21 48 -16 34 5 48 2 80 -20
l38 -26 -7 -111 c-4 -61 -11 -129 -17 -151 -10 -36 -9 -41 12 -58 21 -16 34
-18 118 -11 l94 7 -7 -24 c-29 -92 -33 -248 -7 -257 6 -2 11 -12 11 -23 0 -12
-5 -16 -15 -13 -8 4 -15 14 -15 24 0 23 -23 42 -42 35 -9 -4 -25 -25 -37 -48
-31 -60 -52 -71 -110 -58 -122 26 -207 33 -318 28 -161 -8 -393 -26 -420 -32
-17 -4 -27 2 -40 22 -15 22 -19 54 -21 164 l-4 136 99 6 c54 3 120 11 146 17
39 10 56 10 88 0 37 -12 41 -12 65 11 48 45 57 75 53 179 -8 217 3 312 34 281
6 -6 30 -11 54 -11z m-504 -111 c3 -11 3 -45 0 -75 l-6 -55 -22 21 c-36 33
-50 5 -50 -97 0 -45 -2 -83 -5 -83 -3 0 -12 5 -20 10 -11 7 -22 2 -41 -16 -22
-21 -27 -23 -32 -10 -10 26 17 97 78 201 19 33 42 77 51 97 17 39 38 42 47 7z
m969 -150 c9 -19 17 -53 18 -76 l0 -43 -40 0 c-34 0 -42 4 -50 26 -15 37 -13
131 3 137 23 8 52 -10 69 -44z m-1034 -395 c3 -95 -2 -134 -18 -134 -6 0 -10
47 -10 116 0 88 3 115 13 112 8 -3 13 -34 15 -94z m-108 -39 c11 -13 11 -20 0
-40 -7 -14 -10 -39 -7 -59 4 -26 2 -36 -7 -36 -20 0 -46 62 -46 109 0 37 3 41
24 41 13 0 29 -7 36 -15z m843 -175 c84 -13 117 -27 117 -50 0 -29 -46 -58
-125 -78 -22 -6 -65 -17 -96 -26 -31 -9 -77 -16 -102 -16 -25 0 -58 -5 -72
-12 -22 -10 -29 -8 -50 12 -14 13 -53 42 -87 64 -57 37 -93 80 -83 96 2 4 70
7 151 9 81 1 150 4 153 6 8 9 120 5 194 -5z m-1303 -118 c0 -17 -21 -54 -45
-78 -22 -23 -55 -34 -99 -34 -45 0 -46 0 -46 33 0 63 44 95 133 96 48 1 57 -2
57 -17z m653 4 c22 -17 22 -49 -3 -116 -11 -30 -20 -69 -20 -87 0 -37 -15 -44
-25 -13 -7 21 -4 209 2 223 6 11 26 8 46 -7z m-1284 -41 c17 -20 33 -48 37
-63 3 -15 7 -33 10 -39 5 -18 -6 -43 -19 -43 -18 0 -47 32 -47 52 0 12 -7 18
-24 18 -14 0 -28 -4 -31 -10 -9 -15 -51 -12 -64 4 -13 16 -6 59 17 94 11 16
24 22 52 22 31 0 44 -7 69 -35z m-701 -13 c9 -63 -45 -112 -123 -112 -42 0
-44 -12 -10 -56 30 -39 21 -48 -31 -30 -38 13 -39 14 -36 57 4 50 22 89 55
120 54 52 139 64 145 21z m4797 -47 c9 -44 13 -50 38 -53 15 -2 27 -8 27 -13
0 -20 -78 -85 -118 -96 -76 -23 -82 -20 -82 42 0 85 53 178 98 173 22 -3 27
-10 37 -53z m-5525 -117 c6 -18 16 -41 21 -50 12 -24 12 -108 -1 -108 -5 0
-15 20 -21 45 -10 41 -13 44 -38 39 -70 -17 -131 -91 -131 -160 0 -32 -14 -30
-29 3 -9 19 -10 57 -5 134 8 126 9 127 120 128 l72 1 12 -32z m6383 20 c55
-26 41 -64 -57 -154 -64 -59 -76 -83 -57 -113 11 -17 3 -41 -13 -41 -7 0 -27
16 -46 35 -25 26 -42 35 -67 35 -33 0 -33 0 -33 50 0 116 80 200 190 200 31 0
68 -6 83 -12z m-4483 -23 c8 -10 11 -33 8 -64 -4 -38 -15 -62 -54 -115 -27
-36 -52 -66 -56 -66 -12 0 -48 109 -48 145 0 19 6 46 12 61 21 46 111 71 138
39z m2760 -44 c0 -43 -108 -122 -187 -137 -32 -6 -33 -5 -33 27 0 19 9 48 19
66 17 26 28 33 68 38 26 4 53 8 58 10 21 7 75 5 75 -4z m693 -187 c11 -11 -16
-69 -47 -103 -30 -32 -121 -81 -151 -81 -10 0 -14 16 -14 65 0 36 -3 74 -6 85
-3 11 -3 24 0 30 6 11 207 14 218 4z m-5995 -34 c41 -18 52 -33 33 -44 -5 -3
-12 -26 -16 -52 -6 -43 -8 -45 -33 -39 -38 8 -71 -17 -56 -42 10 -15 5 -25
-30 -64 -22 -25 -46 -54 -53 -65 -18 -30 -33 0 -33 68 0 72 -7 88 -36 88 -29
0 -29 6 -5 62 43 99 131 133 229 88z m7779 -10 c27 -12 36 -12 58 0 23 12 28
12 36 0 9 -14 5 -188 -5 -197 -2 -3 -13 1 -25 9 -19 11 -25 8 -69 -40 -53 -58
-78 -65 -92 -27 -12 31 -32 40 -59 26 -16 -9 -22 -8 -31 8 -12 24 -13 125 -1
149 51 95 50 94 105 89 28 -2 65 -10 83 -17z m-5777 -80 c0 -44 -72 -170 -97
-170 -8 0 -45 16 -82 35 -36 19 -74 36 -84 39 -24 7 -13 53 20 84 20 18 36 22
96 23 40 0 81 4 92 9 40 17 55 12 55 -20z m3670 -9 c0 -26 -37 -79 -60 -86
-41 -13 -38 2 14 93 14 26 21 30 32 21 8 -6 14 -19 14 -28z m-2323 -53 c16
-15 23 -33 23 -59 0 -43 -8 -52 -31 -36 -23 18 -39 52 -39 86 0 36 15 39 47 9z
m-1727 -14 c0 -13 -61 -92 -100 -129 -32 -31 -110 -122 -156 -183 -1 -2 -19 1
-39 8 -58 19 -101 5 -154 -49 -25 -26 -61 -76 -80 -111 -38 -72 -38 -95 4
-186 24 -53 26 -62 15 -95 -13 -40 -28 -53 -161 -140 -134 -88 -172 -154 -149
-258 7 -31 24 -81 38 -111 14 -30 27 -78 30 -106 7 -87 -19 -137 -103 -200
-87 -63 -99 -86 -99 -185 0 -75 3 -84 50 -175 43 -84 49 -103 49 -157 0 -58
-3 -67 -47 -131 l-48 -68 0 -88 0 -88 45 -50 c45 -50 54 -77 35 -112 -5 -10
-12 -74 -14 -141 -3 -113 -13 -149 -31 -120 -3 6 -36 11 -73 11 -56 0 -76 -5
-119 -30 -68 -39 -83 -62 -83 -130 0 -115 55 -230 142 -301 33 -26 53 -33 116
-40 125 -15 172 -40 172 -90 0 -13 -11 -10 -62 15 -51 25 -77 32 -143 34 -95
4 -158 -18 -217 -76 -33 -31 -38 -42 -38 -83 0 -25 7 -66 15 -89 22 -63 19
-86 -15 -110 -16 -12 -42 -42 -57 -68 -24 -41 -28 -58 -28 -127 0 -60 6 -91
22 -126 42 -93 115 -146 208 -151 l50 -3 5 -50 c6 -58 10 -66 68 -131 l44 -49
91 1 c97 1 138 11 242 61 33 15 63 29 68 31 4 2 7 -1 7 -6 0 -19 -84 -104
-149 -149 -36 -26 -68 -50 -71 -53 -3 -3 -23 -19 -45 -35 -22 -16 -52 -41 -67
-56 -24 -22 -40 -27 -110 -32 -74 -6 -123 -14 -263 -47 -164 -38 -241 -49
-324 -50 -86 0 -214 21 -233 39 -15 14 22 47 93 84 41 21 85 46 99 57 24 18
24 20 13 74 -7 31 -19 72 -29 91 -16 34 -16 37 2 57 11 11 45 40 76 65 74 57
93 97 91 189 -5 141 -71 233 -203 281 -19 7 -46 13 -60 13 -14 0 -41 5 -60 10
-34 9 -35 12 -32 47 4 44 -15 80 -74 147 -49 54 -61 56 -186 24 -57 -15 -91
-19 -97 -13 -6 6 -24 64 -41 129 -17 66 -39 133 -49 150 -12 19 -17 41 -14 57
3 16 -3 39 -16 60 -19 31 -21 50 -21 219 -1 102 -5 262 -10 355 -9 181 2 549
20 645 19 99 59 229 110 360 36 90 53 130 121 278 16 35 29 65 29 67 0 3 12
30 26 62 14 32 40 90 57 128 54 120 80 158 126 184 42 23 54 40 66 95 9 41
107 140 200 202 44 29 118 83 165 119 135 105 249 169 533 299 32 14 60 26 62
26 3 0 27 9 53 21 26 12 56 25 67 30 11 5 54 20 95 34 41 15 84 30 95 35 104
43 455 109 455 84z m3850 -45 c0 -46 21 -60 50 -34 12 11 26 14 39 10 49 -15
-2 -55 -71 -55 l-48 0 0 65 c0 53 3 63 15 59 10 -4 15 -20 15 -45z m-2234
-1242 c5 -1373 11 -1255 -70 -1322 -51 -41 -66 -76 -66 -151 0 -67 12 -98 60
-155 49 -58 77 -116 64 -129 -5 -5 -33 -14 -62 -20 -53 -10 -131 -46 -168 -78
-42 -36 -94 -114 -94 -140 0 -30 34 -92 50 -92 5 0 10 -7 10 -15 0 -15 -72
-65 -135 -95 -41 -19 -105 -80 -105 -100 0 -9 -5 -21 -11 -27 -15 -15 -14
-183 2 -229 30 -88 92 -159 167 -194 36 -17 60 -21 116 -18 l70 3 8 -44 c9
-52 32 -79 94 -110 59 -30 94 -63 94 -90 0 -17 -13 -28 -57 -48 -117 -54 -241
-69 -754 -92 -118 -6 -239 -16 -267 -23 l-53 -12 -30 37 c-17 20 -37 37 -44
37 -18 0 -75 58 -75 76 0 8 8 14 18 14 25 0 102 29 138 51 35 21 72 66 97 118
28 57 22 82 -38 156 -18 22 -35 54 -39 70 -6 29 -4 32 31 44 111 37 201 100
255 179 28 41 32 55 32 112 0 77 -17 114 -76 170 -44 41 -112 78 -194 105
l-51 16 -6 78 c-3 43 -10 88 -16 99 -22 42 -175 67 -296 48 -44 -6 -86 -15
-93 -20 -7 -4 -15 -1 -18 9 -4 10 8 37 30 69 20 29 36 62 36 73 0 22 -19 79
-46 141 -81 184 -124 381 -143 657 -22 302 16 637 101 900 32 97 94 278 107
310 42 102 46 108 79 122 18 7 36 21 39 31 11 29 79 116 117 150 20 17 76 58
124 90 87 59 133 85 312 179 53 28 137 78 188 111 52 34 110 64 130 67 164 27
245 46 272 63 57 36 97 52 128 49 l33 -2 5 -1228z m1436 1194 c88 -34 161 -60
208 -73 19 -5 49 -13 65 -18 17 -4 73 -20 125 -33 108 -29 190 -51 270 -73
233 -65 415 -162 620 -328 119 -96 270 -244 324 -316 22 -30 44 -57 48 -60 4
-3 27 -44 51 -90 43 -84 70 -160 106 -297 22 -87 30 -120 46 -193 9 -41 20
-93 25 -115 36 -169 53 -398 40 -555 -21 -251 -50 -429 -82 -496 -11 -24 -63
-84 -123 -141 -87 -85 -106 -109 -118 -149 -16 -52 -14 -52 -87 -34 -81 20
-187 -4 -246 -57 -74 -65 -56 -174 52 -319 80 -107 93 -131 101 -190 6 -45 6
-46 -22 -42 -31 3 -37 12 -56 76 -28 95 -177 172 -332 172 -127 0 -182 -40
-207 -150 -7 -30 -14 -61 -16 -67 -2 -7 -12 -13 -23 -13 -52 0 -144 -81 -178
-158 -28 -63 -32 -178 -8 -235 31 -75 119 -147 179 -147 51 0 52 -55 1 -98
-23 -21 -26 -28 -20 -60 4 -20 14 -45 23 -56 19 -20 134 -76 158 -76 26 0 74
-40 74 -60 0 -21 -14 -21 -105 1 -47 11 -254 48 -340 61 -33 4 -123 11 -200
14 -135 6 -142 7 -212 41 -54 27 -76 44 -88 68 -15 34 -21 37 -94 65 -46 16
-88 60 -77 79 4 6 39 11 86 11 71 0 82 3 111 27 38 32 63 85 80 171 12 56 16
62 37 62 41 0 105 22 149 52 53 36 86 102 91 186 5 77 -19 130 -112 248 -35
44 -71 95 -80 112 -19 36 -24 93 -13 138 7 28 3 38 -43 93 -62 74 -116 110
-181 120 -27 5 -53 11 -57 15 -8 8 -13 287 -32 1681 -10 799 -8 1235 6 1235 2
0 36 -13 76 -29z m1066 -72 l5 -52 -49 6 c-36 4 -54 12 -71 32 -13 14 -23 31
-23 36 0 18 30 21 62 6 38 -19 48 -14 48 21 0 47 22 8 28 -49z m-1767 35 c21
-19 49 -76 49 -100 0 -10 -7 -13 -25 -8 -38 10 -55 -11 -55 -68 0 -79 -9 -88
-90 -88 -58 0 -71 -3 -83 -21 -18 -25 -24 -17 -42 52 -24 90 22 195 105 241
42 23 111 19 141 -8z m-2323 -6 c7 -7 12 -41 12 -84 0 -106 -25 -109 -50 -7
-11 40 -11 58 -2 78 13 28 22 31 40 13z m4895 -27 c29 -11 62 -77 71 -143 7
-46 6 -48 -17 -48 -13 0 -54 -10 -91 -21 -54 -17 -73 -19 -92 -10 -22 10 -24
16 -24 80 0 38 4 72 8 75 5 3 21 -2 36 -10 16 -7 32 -14 37 -14 12 0 11 37 -1
61 -6 11 -8 24 -5 29 8 13 46 13 78 1z m-2903 -31 c0 -17 -4 -39 -10 -50 -5
-11 -14 -29 -20 -40 -5 -11 -10 -69 -10 -130 0 -87 -3 -110 -14 -110 -38 0
-30 253 10 333 20 37 44 36 44 -3z m-3866 -6 c3 -9 6 -38 6 -65 0 -48 -9 -59
-36 -41 -27 18 -46 97 -27 115 12 13 51 7 57 -9z m4416 -34 c15 -29 4 -60 -41
-110 l-40 -45 3 62 c3 49 10 68 28 88 28 30 36 31 50 5z m2538 -22 c51 -85 28
-196 -42 -198 -13 0 -16 5 -12 17 11 27 28 162 22 172 -6 8 2 41 9 41 2 0 12
-15 23 -32z m-2408 -64 l0 -65 -32 3 c-32 3 -33 5 -36 52 -4 64 2 76 38 76
l30 0 0 -66z m2575 32 c23 -30 33 -35 101 -45 41 -6 97 -11 125 -11 58 0 70
-6 221 -103 121 -78 136 -85 213 -112 31 -11 70 -37 105 -69 54 -51 95 -76
127 -76 18 0 42 -28 43 -48 0 -20 18 -33 95 -72 51 -26 74 -44 88 -70 27 -52
90 -107 135 -120 49 -13 69 -39 107 -140 30 -79 60 -138 105 -205 53 -80 87
-173 179 -490 118 -406 86 -971 -82 -1485 -38 -115 -59 -173 -88 -237 -10 -24
-19 -46 -19 -49 0 -11 -34 -33 -52 -34 -32 0 -103 -47 -134 -88 -49 -63 -67
-133 -62 -243 4 -107 17 -140 80 -209 44 -48 73 -104 62 -121 -4 -6 -20 4 -39
24 -127 135 -341 178 -445 90 -36 -29 -70 -91 -70 -126 0 -30 -18 -47 -50 -47
-64 0 -140 -69 -199 -180 -49 -91 -42 -110 80 -236 32 -34 59 -67 59 -74 0 -7
-10 -25 -21 -42 -19 -26 -20 -32 -8 -55 21 -39 102 -107 161 -136 61 -30 116
-48 208 -72 83 -20 91 -29 49 -54 -45 -28 -99 -26 -184 5 -39 14 -92 33 -120
43 -34 11 -54 26 -62 43 -19 39 -32 45 -108 56 -39 5 -93 20 -120 32 -67 30
-75 33 -190 75 -55 20 -122 45 -150 55 -27 10 -89 31 -137 47 -48 15 -88 33
-88 39 0 6 21 19 48 29 128 48 194 90 211 137 22 59 23 59 95 64 116 8 179 50
251 169 34 55 36 65 32 120 -5 70 -25 114 -68 152 -37 34 -33 57 21 128 53 71
56 86 25 142 -64 115 -236 193 -339 153 -23 -8 -26 -7 -26 14 0 30 23 50 90
76 71 28 82 39 104 102 10 29 27 62 37 74 34 37 24 66 -47 145 -66 74 -89 112
-78 130 3 5 23 9 46 9 56 0 88 23 131 91 20 32 37 61 37 64 0 3 9 16 21 28 15
16 19 30 15 50 -6 29 -35 98 -46 107 -24 22 -80 125 -80 148 0 39 43 92 110
136 126 82 144 110 144 225 0 109 -14 132 -129 207 -92 59 -125 97 -125 143 0
43 22 74 79 110 100 65 121 109 107 225 -13 97 -82 174 -200 222 -44 17 -51
24 -54 50 -5 55 -12 74 -43 109 l-31 35 19 37 c12 26 40 52 87 83 85 57 100
83 100 180 1 87 -22 140 -79 179 -46 31 -153 53 -245 49 -74 -3 -75 -3 -78 22
-5 44 -25 70 -89 121 -77 61 -84 81 -47 149 28 52 36 108 20 143 -15 32 31 19
59 -17z m1243 -35 c2 -35 0 -71 -3 -80 -6 -14 -7 -14 -16 1 -14 25 -39 109
-39 131 0 14 6 18 28 15 26 -3 27 -5 30 -67z m327 53 c31 -13 36 -18 30 -37
-4 -12 -10 -60 -12 -107 -3 -47 -8 -89 -12 -93 -5 -4 -36 -3 -71 2 -79 13
-100 4 -100 -44 0 -19 -3 -35 -8 -35 -4 0 -24 27 -45 60 -47 75 -49 126 -9
184 51 74 148 104 227 70z m-629 -45 c3 -5 19 -9 35 -9 23 0 30 -4 27 -16 -7
-35 -33 -39 -70 -11 -19 15 -45 27 -56 27 -24 0 -28 10 -11 27 12 12 64 -1 75
-18z m-8456 2 c5 -11 10 -48 10 -83 0 -87 27 -112 70 -66 16 18 20 35 20 95 0
58 3 73 15 73 22 0 29 -44 19 -129 l-9 -76 -92 -3 -93 -3 0 -34 c0 -44 -19
-46 -54 -4 -43 51 -33 107 36 196 43 57 61 64 78 34z m5100 -166 c0 -159 -7
-204 -24 -159 -7 19 -7 315 0 326 18 29 24 -11 24 -167z m-3129 83 c1 -7 1
-24 0 -38 -1 -14 6 -59 14 -100 23 -105 23 -114 2 -118 -11 -2 -36 15 -68 47
-50 51 -70 59 -99 41 -13 -8 -13 -13 3 -39 24 -41 22 -53 -10 -49 l-28 3 1 85
c0 86 13 127 49 164 21 20 134 23 136 4z m-1383 -27 c8 -5 12 -23 10 -47 l-3
-39 -58 3 c-57 4 -57 4 -63 -27 -6 -29 -20 -48 -29 -39 -2 1 -6 15 -10 29 -8
34 33 84 89 110 49 21 48 21 64 10z m6396 -47 c11 -29 6 -54 -14 -74 -12 -12
-25 -18 -30 -15 -5 3 -12 0 -15 -5 -15 -25 10 -67 81 -135 48 -46 74 -79 74
-93 0 -47 -48 -19 -100 59 -22 33 -54 72 -70 86 -26 21 -60 71 -60 86 0 3 14
7 30 11 17 3 33 14 36 23 18 53 31 73 45 73 9 0 20 -7 23 -16z m-4616 -26 c16
-16 15 -31 -5 -78 -18 -41 -38 -48 -56 -19 -7 11 -4 29 11 62 22 49 30 55 50
35z m2553 -90 c20 -27 23 -45 24 -124 0 -77 -3 -95 -19 -113 -11 -12 -27 -21
-38 -21 -25 0 -24 53 1 121 29 75 15 97 -39 59 -15 -11 -30 -17 -34 -13 -12
12 -6 62 10 75 8 7 23 21 32 30 25 24 38 22 63 -14z m2204 3 c22 -10 57 -37
78 -59 38 -44 50 -79 21 -68 -9 3 -21 6 -27 6 -7 1 -37 23 -67 51 -30 27 -65
52 -77 55 -13 4 -23 12 -23 20 0 20 47 17 95 -5z m-4856 -75 c17 -20 10 -77
-10 -89 -30 -19 -49 -1 -49 46 0 24 3 47 7 50 11 12 40 8 52 -7z m1683 2 c3
-7 3 -129 0 -271 -3 -183 -8 -257 -16 -254 -11 4 -22 497 -11 524 6 17 22 17
27 1z m716 -14 c5 -33 -51 -145 -89 -181 -30 -28 -42 -32 -99 -35 -59 -3 -65
-5 -68 -25 -4 -27 -27 -30 -38 -5 -4 9 -10 42 -13 72 l-6 55 -34 -3 c-19 -1
-40 -7 -46 -12 -7 -6 -16 -5 -23 2 -14 14 12 48 37 48 9 0 32 11 52 24 102 70
151 85 259 83 58 -2 65 -4 68 -23z m-4749 -40 c37 -47 25 -104 -20 -104 -24 0
-29 -4 -29 -26 0 -19 8 -28 35 -40 23 -9 35 -21 35 -34 0 -32 -19 -33 -49 -1
-16 17 -39 32 -52 34 -36 6 -36 45 1 87 29 33 43 65 39 86 -6 33 13 32 40 -2z
m5186 -41 c9 -37 -5 -214 -16 -207 -17 10 -39 76 -39 115 0 50 21 119 36 119
7 0 15 -12 19 -27z m3885 10 c57 -21 132 -71 125 -84 -4 -5 -21 -9 -39 -9 -46
0 -63 -22 -42 -52 22 -31 20 -45 -6 -54 -16 -5 -27 0 -45 20 -27 32 -29 63 -7
94 22 31 4 50 -49 54 -35 2 -43 7 -45 26 -3 19 1 22 29 22 19 0 54 -8 79 -17z
m-1241 -76 c28 -58 27 -75 -10 -113 -20 -21 -32 -45 -36 -73 -6 -45 -10 -47
-78 -30 -60 15 -73 39 -76 135 -2 60 1 79 12 82 18 4 59 22 79 33 8 4 31 8 52
8 33 1 38 -3 57 -42z m-7657 6 c35 -39 51 -86 52 -154 1 -73 -17 -96 -35 -45
-7 20 -16 36 -19 36 -3 0 -26 -9 -49 -21 -54 -26 -73 -20 -69 23 3 31 7 34 61
51 32 11 61 26 64 34 9 24 -25 43 -74 43 -49 0 -52 5 -21 37 29 31 59 29 90
-4z m2093 11 c20 -20 13 -43 -36 -115 -32 -48 -40 -71 -54 -155 -47 -291 -39
-264 -77 -264 -33 0 -33 -2 -12 98 5 26 -1 48 -31 109 -30 60 -38 88 -39 134
-1 66 11 87 42 70 27 -14 33 -35 21 -70 -14 -39 -8 -106 9 -106 17 0 89 171
128 303 5 17 29 15 49 -4z m186 4 c6 -66 -15 -106 -58 -114 l-33 -6 0 -124 c0
-68 -4 -125 -10 -129 -5 -3 -19 4 -30 15 -18 18 -21 29 -15 69 3 25 2 59 -4
73 -9 24 -6 31 19 56 15 16 34 48 40 72 16 60 87 129 91 88z m6824 -34 c15
-10 34 -14 52 -10 23 5 36 0 66 -28 33 -30 50 -76 29 -76 -5 0 -35 17 -68 38
-32 21 -74 44 -91 51 -33 13 -39 22 -26 34 9 10 10 9 38 -9z m-1871 -76 c17
-24 22 -68 7 -68 -5 0 -21 14 -35 31 -22 26 -29 29 -42 18 -12 -10 -14 -25 -9
-75 8 -73 -3 -87 -40 -50 -30 30 -32 61 -5 101 42 64 96 83 124 43z m1591 -64
c32 -28 54 -78 42 -91 -5 -4 -77 48 -112 82 -20 19 -45 59 -45 73 0 17 70 -22
115 -64z m756 46 l37 -10 -2 -79 -1 -78 -41 5 c-40 4 -42 3 -48 -25 -4 -17 -6
-36 -4 -44 2 -11 -11 -14 -55 -16 -70 -2 -92 -15 -148 -89 -45 -58 -73 -83
-84 -72 -6 6 8 46 54 161 6 15 11 68 11 116 0 83 2 90 24 104 63 42 169 53
257 27z m-9967 -4 c50 -21 89 -124 72 -191 -5 -21 -11 -25 -29 -19 -12 3 -29
13 -38 20 -22 20 -29 17 -29 -12 0 -22 -4 -25 -27 -24 -72 5 -76 3 -69 -35 6
-28 4 -35 -9 -35 -73 0 -75 177 -2 271 30 39 76 48 131 25z m2011 4 c12 -19 8
-165 -5 -190 -7 -14 -16 -32 -20 -40 -8 -16 -69 -20 -107 -7 -19 7 -23 5 -23
-12 0 -12 4 -21 10 -21 5 0 7 -7 4 -15 -7 -18 -45 -20 -62 -3 -7 7 -12 39 -12
73 0 52 7 82 36 168 6 17 15 21 46 18 9 -1 34 7 55 18 42 22 69 26 78 11z
m3229 -74 c0 -60 -16 -89 -48 -84 -15 2 -22 12 -24 33 -4 32 14 102 31 123 20
25 41 -13 41 -72z m4198 33 c20 -11 19 -12 -13 -45 -37 -39 -69 -45 -69 -14 0
27 29 70 47 70 8 0 23 -5 35 -11z m100 -29 l48 0 0 -164 c0 -91 -4 -167 -9
-170 -22 -14 -42 48 -51 156 -8 93 -13 117 -35 149 -26 41 -33 61 -13 41 7 -7
34 -12 60 -12z m-9210 -64 c13 -19 9 -59 -9 -78 -20 -22 -39 -23 -47 -2 -11
28 -6 92 7 97 15 5 40 -3 49 -17z m5069 -241 c19 -316 30 -593 35 -850 5 -238
5 -251 -14 -268 -11 -10 -26 -15 -36 -11 -15 6 -16 64 -15 688 1 691 8 800 30
441z m3929 153 c38 -75 67 -115 116 -161 32 -30 35 -37 25 -55 -7 -12 -20 -22
-31 -22 -17 0 -50 36 -62 70 -3 8 -21 35 -39 59 -58 75 -68 95 -68 134 -1 56
22 47 59 -25z m-1602 0 c7 -7 12 -38 12 -70 0 -56 -1 -58 -20 -48 -23 12 -50
60 -50 88 0 20 18 42 35 42 6 0 16 -5 23 -12z m-3118 -27 c14 -27 6 -41 -46
-80 -44 -33 -62 -67 -50 -96 5 -15 -9 -21 -18 -7 -2 4 -6 30 -7 57 -3 43 -1
50 16 53 30 6 52 29 59 63 6 33 30 39 46 10z m360 -36 c0 -66 -32 -110 -138
-192 -20 -16 -21 -21 -10 -50 15 -40 2 -57 -36 -47 -32 8 -136 123 -136 151 0
56 61 136 113 148 58 14 116 23 160 24 l47 1 0 -35z m-2480 -27 c25 -27 25
-27 1 -113 -11 -39 -21 -81 -23 -95 l-3 -25 -14 24 c-10 18 -12 49 -6 127 4
57 11 104 16 104 4 0 17 -10 29 -22z m5042 -50 c29 -62 63 -193 98 -376 44
-235 32 -679 -25 -897 -23 -88 -79 -245 -87 -245 -27 0 -20 138 11 229 82 236
86 516 15 981 -22 146 -35 221 -45 267 -11 53 -12 106 0 99 5 -3 20 -29 33
-58z m-7110 5 c34 -31 10 -114 -29 -99 -8 3 -17 6 -19 6 -7 0 -4 96 3 103 11
11 25 8 45 -10z m3830 5 c3 -24 9 -183 11 -297 1 -81 -1 -115 -10 -118 -25 -9
-35 77 -30 251 3 94 6 172 6 174 3 8 21 0 23 -10z m969 -38 c17 -10 19 -22 19
-131 0 -109 -2 -120 -17 -117 -35 6 -54 66 -50 154 3 74 10 104 23 104 3 0 14
-5 25 -10z m-5355 -47 c7 -10 14 -25 14 -34 0 -8 7 -24 15 -35 15 -19 15 -19
30 0 8 11 21 16 30 13 17 -7 20 -33 5 -42 -5 -3 -10 -15 -10 -27 0 -19 4 -20
50 -14 29 4 87 25 137 51 47 24 90 42 94 39 30 -18 -20 -94 -62 -94 -18 0 -20
-4 -14 -22 22 -73 24 -138 3 -138 -27 0 -48 34 -48 77 0 23 -4 43 -10 43 -18
0 -30 -39 -30 -95 0 -58 -14 -100 -30 -90 -5 3 -32 50 -60 105 -52 100 -82
138 -132 168 -22 13 -27 22 -23 37 4 11 9 32 12 48 6 32 11 33 29 10z m2434
-23 c23 -23 24 -29 10 -64 -7 -19 -17 -26 -35 -26 -23 0 -25 3 -25 48 0 67 14
78 50 42z m5420 -10 c14 -14 20 -33 20 -65 0 -49 -10 -56 -48 -29 -32 22 -44
58 -30 89 14 30 31 32 58 5z m-5763 -51 c21 -22 49 -45 62 -50 19 -8 21 -12
11 -24 -34 -40 -150 18 -150 75 0 54 27 54 77 -1z m7721 1 c43 -21 78 -62 68
-79 -4 -6 -17 -4 -35 5 -36 18 -61 9 -61 -22 0 -15 -6 -24 -15 -24 -12 0 -15
14 -15 70 0 39 4 70 8 70 5 0 27 -9 50 -20z m-9344 -16 c23 -59 -13 -144 -49
-114 -19 16 -19 19 8 79 23 54 31 61 41 35z m4152 -48 c8 -14 25 -26 37 -28
18 -2 23 -11 25 -47 5 -67 -4 -91 -33 -91 -28 0 -29 3 -14 31 8 16 4 32 -20
79 -17 33 -31 64 -31 70 0 18 19 11 36 -14z m3668 8 c12 -5 16 -20 16 -59 0
-30 4 -64 9 -77 4 -13 11 -40 15 -60 6 -34 5 -38 -13 -38 -13 0 -27 12 -36 30
-21 40 -48 38 -82 -6 -43 -54 -56 -68 -81 -82 -37 -21 -45 -6 -37 62 11 80 11
113 1 157 -7 35 -6 37 21 42 15 3 51 12 78 20 57 17 87 20 109 11z m-8439 -20
c22 -10 40 -30 53 -57 21 -46 46 -172 37 -187 -10 -16 -51 -12 -113 10 -53 19
-58 19 -69 3 -7 -9 -13 -23 -13 -30 0 -18 -13 -16 -40 7 -39 34 -28 141 23
238 15 27 23 32 53 32 20 0 51 -7 69 -16z m2557 -78 c16 -23 7 -57 -22 -83
-16 -14 -30 -33 -30 -41 0 -8 14 -30 30 -49 58 -66 20 -90 -43 -27 l-36 37
-10 -24 c-5 -13 -12 -32 -15 -41 -3 -10 -13 -18 -22 -18 -11 0 -14 5 -9 18 4
9 11 29 15 44 5 16 18 41 29 57 23 32 19 39 -39 61 -41 16 -50 26 -50 58 0 23
23 30 48 13 7 -4 34 -2 60 5 49 13 82 9 94 -10z m-508 -11 c35 -18 53 -19 59
-2 2 6 12 -4 21 -23 15 -30 16 -50 9 -130 -7 -85 -10 -95 -28 -95 -13 0 -26
-13 -37 -37 -10 -20 -22 -39 -28 -43 -17 -11 -40 15 -40 45 0 27 -20 52 -52
63 -24 9 -23 53 2 124 11 32 20 67 20 78 0 39 25 45 74 20z m634 -7 c9 -9 12
-98 12 -342 -1 -327 -1 -331 -20 -308 -10 12 -26 48 -35 80 -15 48 -16 93 -11
317 3 143 5 261 6 263 1 7 38 0 48 -10z m7350 -20 c6 -13 13 -75 15 -138 1
-63 6 -123 11 -134 16 -33 -17 -13 -38 24 -15 25 -21 58 -24 136 -5 102 -1
134 16 134 5 0 14 -10 20 -22z m-161 -34 c14 -22 15 -35 6 -87 -11 -69 -5 -98
31 -137 28 -30 43 -88 50 -190 3 -41 10 -120 16 -175 21 -218 4 -526 -38 -700
-6 -22 -15 -62 -20 -90 -10 -48 -63 -217 -81 -260 -8 -20 -36 -91 -51 -130
-32 -87 -62 -143 -90 -170 -24 -23 -80 -44 -80 -31 0 6 126 332 151 391 10 23
55 173 69 228 6 20 14 54 20 75 61 239 64 481 10 812 -5 30 -13 84 -19 120
-10 59 -40 327 -41 358 0 23 49 13 67 -14z m-1749 -16 c7 -7 12 -18 12 -25 0
-14 -68 -93 -80 -93 -22 0 -17 37 12 81 34 53 38 55 56 37z m-2850 -54 c4 -40
-29 -111 -70 -153 -34 -35 -97 -71 -123 -71 -19 0 -20 -34 -1 -50 20 -16 9
-40 -19 -40 -23 0 -75 65 -75 94 0 8 -4 18 -10 21 -5 3 -10 14 -10 23 0 9 -7
30 -15 46 -19 36 -15 42 34 50 41 6 51 19 51 67 0 16 5 29 10 29 6 0 10 -5 10
-10 0 -6 11 -15 24 -21 19 -9 31 -6 67 12 90 49 123 49 127 3z m-4725 -19 c-3
-31 -27 -95 -36 -95 -19 0 -37 97 -20 114 4 4 19 6 33 4 18 -2 25 -8 23 -23z
m9880 -2 c35 -17 70 -90 65 -135 -2 -25 -9 -33 -33 -40 -112 -32 -128 -43
-151 -97 -8 -18 -14 -46 -14 -62 0 -37 -18 -37 -57 1 -72 71 -95 185 -47 233
15 15 30 25 34 22 9 -6 0 -64 -11 -71 -15 -9 -10 -90 7 -104 12 -11 18 -10 32
4 14 13 17 37 17 130 0 140 6 150 79 141 28 -4 64 -14 79 -22z m-5596 -25 c6
-13 8 -49 5 -80 -4 -48 -8 -58 -23 -58 -10 0 -23 9 -29 20 -14 25 -24 105 -17
124 10 24 52 20 64 -6z m-296 -95 c14 -35 38 -166 32 -175 -7 -13 -40 -9 -52
6 -14 16 -12 196 2 196 4 0 12 -12 18 -27z m-2041 -110 c21 -26 22 -35 15
-121 -7 -107 4 -138 52 -144 l28 -3 3 -147 c1 -90 -1 -148 -7 -148 -13 0 -23
33 -25 89 -2 33 -13 62 -37 101 -19 30 -48 81 -64 113 -17 32 -51 79 -77 103
-52 49 -58 71 -29 98 27 25 38 15 52 -49 13 -57 29 -74 49 -50 12 14 10 47 -6
122 -7 35 0 63 15 63 5 0 19 -12 31 -27z m-2154 -38 c9 -14 17 -48 18 -77 1
-53 1 -53 -31 -56 -23 -2 -46 6 -85 33 -51 35 -53 36 -62 16 -19 -43 -125 -31
-143 16 -8 22 26 45 57 39 93 -17 97 -17 113 -2 20 21 26 20 54 -6 l23 -21 0
35 c0 55 27 66 56 23z m9776 -55 c23 -48 26 -270 3 -270 -8 0 -23 12 -32 27
-25 38 -27 285 -3 281 8 -2 23 -19 32 -38z m-9660 -187 c-1 -95 -6 -171 -12
-177 -7 -7 -17 -3 -31 11 -28 27 -35 95 -19 188 6 39 13 88 16 110 9 65 12 71
32 51 15 -15 17 -37 14 -183z m4113 137 c4 -6 2 -25 -4 -43 -13 -40 -17 -140
-7 -185 7 -30 6 -33 -11 -30 -44 8 -68 131 -41 209 16 46 49 72 63 49z m-4639
-61 c29 -16 56 -35 60 -41 8 -13 -12 -33 -57 -57 -29 -16 -34 -24 -37 -60 l-3
-41 -45 0 c-24 0 -44 -2 -44 -4 0 -12 31 -76 40 -81 19 -12 10 -25 -18 -25
-53 0 -82 58 -82 165 0 71 8 104 38 153 21 33 81 30 148 -9z m8572 19 c7 -7
12 -28 12 -47 0 -22 8 -43 21 -58 19 -19 20 -25 9 -38 -7 -9 -23 -21 -34 -27
-21 -11 -208 -40 -215 -33 -2 2 1 17 6 32 6 15 7 37 2 48 -4 11 -8 39 -8 62
-1 36 3 45 27 57 33 19 163 21 180 4z m-6345 -38 c87 -65 101 -120 40 -151
-48 -24 -61 -38 -65 -66 -5 -42 -138 -79 -138 -38 0 7 10 35 21 64 23 55 16
81 -22 81 -13 0 -19 7 -19 21 0 33 17 55 65 85 25 16 45 32 45 37 0 15 21 6
73 -33z m-1903 -1 c15 -28 12 -54 -10 -74 -32 -29 -50 -13 -50 44 0 49 10 63
38 53 7 -2 17 -13 22 -23z m4890 -167 c47 -22 67 -39 99 -87 31 -45 51 -107
51 -155 l0 -33 45 5 c28 4 61 17 85 34 67 48 103 63 151 64 53 0 64 -11 92
-94 21 -62 21 -108 1 -176 -22 -73 -40 -98 -77 -105 -38 -8 -155 -46 -215 -70
-54 -22 -72 -10 -41 29 25 32 79 56 125 56 l34 0 0 60 0 60 -62 0 c-69 0 -108
-24 -108 -67 0 -31 -17 -29 -94 9 -78 38 -96 31 -96 -38 0 -56 -12 -62 -37
-16 -32 58 -46 139 -41 246 4 109 -3 119 -48 61 -26 -35 -27 -38 -19 -128 4
-51 8 -117 9 -147 1 -51 -1 -55 -29 -70 -16 -8 -32 -16 -34 -17 -6 -4 18 -80
39 -128 57 -128 63 -159 30 -168 -34 -9 -50 18 -43 69 6 43 4 46 -40 89 -33
31 -48 55 -53 82 -4 21 -12 41 -17 45 -19 12 -188 142 -236 181 l-46 38 -17
-22 c-21 -25 -25 -123 -5 -136 6 -4 30 -10 52 -13 35 -4 40 -8 43 -34 l4 -29
-55 6 c-109 11 -188 89 -204 202 -8 63 17 125 65 159 57 39 97 35 175 -19 37
-25 68 -45 71 -45 2 0 7 23 11 50 18 127 125 245 246 270 56 11 144 3 189 -18z
m-2385 -92 c18 -52 27 -150 15 -150 -21 0 -59 48 -65 84 -4 20 -4 52 -1 72 9
45 34 43 51 -6z m-2309 -35 c14 -21 14 -32 4 -74 -14 -61 -30 -77 -60 -61 -18
9 -21 18 -17 43 6 37 17 87 22 105 7 20 33 14 51 -13z m10007 -55 c4 -4 6 -56
5 -116 l-3 -109 -60 -1 c-93 -2 -95 -3 -104 -26 -9 -23 -9 -23 -20 5 -25 64
-7 182 34 224 35 35 120 48 148 23z m-8139 -10 c33 -5 66 -16 73 -23 20 -20
42 -122 43 -196 l0 -64 43 7 c36 5 52 16 107 75 79 84 112 97 181 75 87 -29
129 -99 129 -218 l0 -59 -93 -91 c-104 -101 -146 -173 -168 -284 -11 -58 -10
-65 8 -90 16 -21 31 -28 69 -32 44 -5 49 -7 49 -30 0 -20 -10 -30 -47 -49 -27
-13 -48 -30 -48 -38 0 -24 -25 -8 -28 18 -6 55 -14 69 -46 84 -30 15 -34 21
-40 71 -3 31 -3 123 0 205 6 136 9 149 26 149 14 0 18 -8 18 -40 0 -27 4 -40
14 -40 28 0 40 31 39 98 -2 94 9 125 52 141 23 8 35 19 35 31 0 29 -34 33 -78
11 -56 -29 -85 -68 -80 -109 4 -31 3 -33 -21 -26 -14 5 -48 8 -76 9 -44 0 -50
-3 -53 -22 -3 -18 5 -26 37 -39 32 -13 41 -21 41 -40 0 -13 -6 -24 -13 -24 -7
0 -33 -9 -56 -21 -24 -11 -49 -18 -57 -15 -22 9 -27 54 -15 140 20 148 13 209
-29 242 -23 19 -31 6 -14 -22 19 -28 14 -42 -7 -22 -55 51 -101 88 -110 88
-12 0 -8 -56 11 -165 27 -149 41 -381 24 -397 -3 -4 -22 5 -41 18 -20 13 -47
24 -61 24 -13 0 -42 5 -62 11 -32 10 -43 21 -67 68 -15 30 -40 62 -54 70 -33
19 -74 8 -96 -25 -16 -25 -16 -27 2 -40 10 -7 30 -24 45 -38 51 -45 78 -57
147 -67 76 -11 87 -18 88 -57 0 -24 6 -29 60 -45 33 -10 71 -23 85 -30 26 -13
59 -62 49 -72 -4 -3 -42 11 -85 31 -116 53 -151 66 -317 115 -64 18 -134 73
-181 142 -32 46 -40 68 -44 115 -3 47 0 63 20 91 34 50 48 56 89 39 183 -80
200 -85 233 -72 23 9 20 25 -12 60 -27 31 -27 32 -26 169 l1 139 37 32 c21 18
48 35 60 37 41 8 152 7 210 -3z m330 -16 c51 -20 -20 -94 -89 -94 -30 0 -30
-1 -3 49 24 45 53 60 92 45z m-2368 -230 l-1 -165 -30 5 c-36 8 -47 23 -40 56
9 38 7 60 -6 77 -12 13 -31 23 -136 70 -38 16 -41 35 -13 81 22 36 60 43 94
17 18 -14 17 -15 -13 -32 -17 -10 -31 -24 -31 -30 0 -19 47 -45 68 -39 21 7
42 45 42 76 0 19 35 50 56 50 8 0 11 -46 10 -166z m8054 -24 c28 -28 29 -110
1 -110 -10 0 -24 -7 -31 -15 -16 -20 -36 -19 -44 1 -4 9 -3 45 0 80 6 59 9 64
30 64 13 0 33 -9 44 -20z m-8442 -143 c1 -70 1 -127 -1 -127 -2 0 -18 7 -36
16 -41 20 -61 12 -61 -25 0 -34 21 -58 68 -78 18 -8 32 -19 29 -26 -7 -24 -47
-18 -103 15 l-56 33 4 110 c4 115 12 141 57 182 23 20 61 33 86 28 6 -1 11
-54 13 -128z m546 101 c12 -17 16 -50 16 -140 0 -64 -4 -119 -10 -123 -15 -9
-48 17 -55 42 -3 13 -2 72 1 133 7 116 17 133 48 88z m7364 10 c5 -7 12 -49
14 -93 l4 -80 -30 -15 c-47 -23 -60 -61 -60 -172 0 -54 -3 -98 -8 -98 -5 0
-17 5 -28 12 -16 10 -24 9 -47 -8 -29 -21 -88 -54 -98 -54 -3 0 -5 11 -5 24 0
31 -17 44 -65 48 -37 3 -40 5 -43 36 -3 30 -2 32 31 32 24 0 48 -11 81 -37 46
-36 49 -37 62 -18 20 27 19 29 -31 85 -48 54 -53 75 -34 143 13 48 57 97 139
158 66 49 99 59 118 37z m190 -82 l65 -63 4 -142 c4 -125 3 -145 -13 -162 -9
-10 -25 -19 -36 -19 -17 0 -18 11 -18 155 l0 154 -42 35 c-24 19 -54 44 -68
55 -24 21 -25 21 -6 36 32 24 45 19 114 -49z m-2732 9 c8 -33 -5 -195 -16
-195 -15 0 -40 31 -40 49 0 10 7 38 15 61 8 23 15 58 15 76 0 40 17 45 26 9z
m-439 -105 c7 -14 12 -41 11 -60 -2 -27 -8 -36 -25 -38 -31 -5 -47 30 -38 85
7 50 30 56 52 13z m1091 -27 c35 -26 102 -114 102 -134 0 -22 -27 -44 -80 -65
-43 -17 -85 -52 -75 -62 2 -3 28 -9 57 -13 106 -17 210 -95 258 -194 30 -63
34 -191 8 -241 -31 -56 -39 -59 -189 -59 -147 0 -155 -3 -143 -48 3 -12 26
-35 52 -52 63 -40 66 -67 14 -138 l-40 -53 -73 8 c-176 21 -297 60 -387 126
-62 45 -128 125 -117 142 19 31 100 -15 123 -70 14 -33 22 -40 45 -40 32 0 67
16 84 39 10 14 16 11 49 -22 43 -43 115 -81 192 -101 55 -14 66 -10 56 21 -12
31 -36 53 -60 53 -23 0 -68 45 -87 87 -9 20 -18 23 -63 23 l-53 0 -12 43 c-16
55 -26 67 -55 67 -31 0 -30 15 2 36 31 21 124 22 173 2 31 -12 38 -12 80 9 36
18 63 22 126 22 44 0 100 -4 125 -9 25 -5 48 -5 52 -1 11 10 -49 79 -84 97
-77 40 -271 59 -355 35 -23 -7 -35 -6 -43 4 -15 18 -3 42 37 66 32 20 33 22
17 40 -18 20 -13 49 8 49 7 0 27 -14 45 -30 38 -36 58 -38 74 -8 10 19 7 26
-36 63 -52 45 -54 63 -12 111 32 37 73 53 149 61 73 6 85 19 45 46 -24 15 -73
22 -134 19 -48 -3 -103 -55 -103 -98 0 -30 -4 -34 -38 -44 -40 -10 -131 -69
-183 -118 -17 -16 -46 -37 -65 -47 -35 -19 -37 -19 -87 -1 -67 23 -114 59
-134 102 -13 27 -14 36 -3 49 18 21 31 19 93 -15 40 -22 69 -30 103 -30 l48 0
115 118 c141 143 212 186 299 179 32 -2 64 -12 80 -24z m-2658 -88 c0 -37 -9
-68 -35 -119 -33 -65 -33 -69 -18 -93 15 -23 21 -24 70 -19 170 19 163 19 209
-4 47 -25 134 -126 134 -157 0 -33 -38 -81 -87 -109 -26 -15 -55 -33 -63 -40
-27 -23 -132 -74 -151 -74 -15 0 -19 7 -19 33 0 48 41 82 139 116 98 34 121
52 101 76 -38 46 -97 55 -188 29 -73 -20 -107 -31 -185 -63 -51 -20 -67 -15
-67 23 0 40 -13 53 -58 58 l-34 3 -2 86 c-2 47 -6 91 -10 98 -4 6 -32 11 -65
11 -69 0 -72 -6 -64 -100 5 -51 3 -60 -11 -60 -9 0 -26 10 -37 21 -28 28 -21
73 19 131 16 24 38 67 48 97 31 88 82 109 257 107 l117 -1 0 -50z m4080 39
c34 -7 56 -25 65 -53 7 -22 5 -23 -16 -16 -44 14 -117 17 -139 5 -35 -19 -35
-4 1 40 22 27 38 39 48 35 9 -4 27 -9 41 -11z m-2847 -46 c36 -54 97 -101 202
-153 52 -26 137 -111 133 -132 -5 -28 -24 -25 -67 11 -46 39 -50 39 -126 -9
-54 -34 -120 -66 -188 -91 -23 -9 -51 -19 -62 -24 -11 -4 -40 -13 -65 -20 -25
-7 -55 -16 -67 -21 -12 -4 -45 -11 -73 -15 -58 -8 -65 -17 -55 -70 4 -25 22
-50 58 -85 61 -58 82 -61 223 -29 49 12 106 24 127 27 l38 6 -16 -39 c-8 -21
-13 -44 -11 -51 3 -7 26 -18 51 -24 33 -8 50 -20 62 -41 20 -32 46 -34 51 -2
2 11 -6 40 -17 64 -26 58 -14 71 39 41 l40 -22 1 40 c1 23 3 46 4 51 1 6 3 12
4 15 3 13 53 -31 67 -58 33 -63 -12 -140 -152 -260 l-87 -74 -86 -2 c-120 -2
-181 25 -181 83 0 22 67 48 115 45 101 -6 112 16 40 75 -25 21 -45 44 -45 52
0 30 -63 7 -134 -50 -35 -28 -45 -31 -106 -30 -61 0 -73 4 -116 35 -71 51 -99
112 -98 214 1 157 68 225 224 225 53 0 70 4 84 19 23 25 7 58 -32 67 -42 10
-61 32 -68 80 -16 107 64 171 217 173 48 1 59 -2 72 -21z m3427 -10 c12 -19
19 -46 18 -63 -3 -26 -7 -30 -33 -30 -30 0 -30 0 -33 63 -2 51 0 62 13 62 8 0
24 -15 35 -32z m-3002 -60 c12 -24 27 -59 32 -78 18 -63 -25 -200 -50 -160
-19 30 -32 280 -15 280 5 0 20 -19 33 -42z m5529 11 c64 -24 108 -97 67 -113
-17 -7 -38 6 -65 38 -10 12 -23 17 -33 13 -18 -7 -18 -7 -41 -90 -11 -38 -25
-63 -41 -73 -31 -21 -47 -8 -64 51 -14 51 -24 55 -52 20 -16 -21 -23 -23 -40
-14 -19 10 -19 11 -1 31 43 48 118 102 171 124 67 28 63 27 99 13z m-3178 -53
c6 -7 17 -30 24 -51 11 -30 24 -44 63 -64 33 -18 50 -34 52 -49 3 -19 -1 -22
-28 -22 -35 0 -77 19 -102 46 -37 43 -65 110 -59 147 2 12 38 8 50 -7z m1015
2 c50 -15 98 -40 103 -55 8 -22 -97 -30 -197 -15 -58 9 -62 38 -10 64 42 21
50 22 104 6z m-7740 -90 c16 -23 23 -138 9 -138 -14 1 -39 24 -51 47 -7 12
-12 42 -12 67 0 39 3 46 19 46 11 0 27 -10 35 -22z m7871 -68 c39 -43 -21
-110 -143 -157 -54 -21 -180 -32 -195 -17 -3 4 17 24 46 46 49 37 55 39 104
35 48 -5 54 -3 92 30 27 23 41 43 41 59 0 30 29 32 55 4z m-7966 -56 c17 -22
21 -40 20 -101 -1 -77 7 -98 46 -113 18 -7 18 -9 3 -15 -11 -4 -35 5 -68 26
-46 30 -50 36 -43 59 9 31 8 105 -2 143 -10 36 16 37 44 1z m1567 -48 c77 -76
111 -95 180 -99 32 -2 39 -6 39 -22 0 -15 -17 -28 -62 -50 -60 -28 -79 -54
-53 -70 21 -13 9 -25 -26 -25 -19 0 -67 -5 -105 -12 -75 -12 -173 1 -183 25
-3 8 -10 5 -21 -8 -8 -11 -35 -29 -58 -40 l-42 -21 3 -66 c2 -49 -2 -69 -13
-78 -16 -13 -21 -40 -7 -40 4 0 22 9 41 21 38 23 61 19 61 -10 0 -26 36 -36
74 -22 37 15 101 14 113 -1 14 -18 22 -54 14 -65 -9 -14 -106 -33 -164 -33
-142 1 -219 64 -220 184 -1 107 52 180 148 201 l45 10 -23 35 c-27 40 -77 155
-77 175 0 18 49 55 93 71 17 6 63 12 100 13 l68 1 75 -74z m3177 40 c-3 -38
-64 -102 -121 -127 -48 -21 -117 -25 -127 -8 -12 19 5 78 32 109 37 44 77 59
153 57 l65 -2 -2 -29z m1674 8 c3 -9 -2 -53 -12 -98 -9 -46 -15 -96 -13 -111
3 -26 -1 -30 -28 -36 -18 -3 -68 -25 -112 -47 -45 -23 -88 -42 -96 -42 -13 0
-16 -15 -16 -90 0 -80 2 -90 18 -90 27 0 42 20 42 55 0 35 15 55 43 55 15 0
18 -5 13 -22 -17 -58 -18 -98 -3 -122 18 -27 93 -56 144 -56 l33 0 0 -55 c0
-64 -21 -105 -54 -105 -39 0 -49 -15 -42 -59 8 -51 -6 -81 -38 -81 -18 0 -27
8 -35 30 -15 43 2 82 55 125 55 45 59 77 12 95 -198 79 -258 128 -258 212 0
119 91 215 237 251 53 13 50 6 37 107 -5 37 -2 50 16 73 24 30 48 35 57 11z
m166 -10 c46 -23 86 -64 103 -103 29 -70 13 -68 -71 9 -36 32 -82 65 -100 72
-19 6 -35 18 -35 25 0 19 64 17 103 -3z m-6958 -38 c127 -39 228 -119 274
-216 20 -43 25 -71 26 -130 0 -90 -8 -118 -30 -100 -11 9 -15 36 -15 111 0 54
-4 101 -10 104 -16 10 -50 -14 -50 -35 0 -11 -7 -20 -15 -20 -18 0 -21 45 -4
56 17 10 -43 66 -103 96 -80 40 -112 48 -250 60 -141 13 -164 8 -188 -37 -13
-25 -13 -28 4 -41 16 -11 17 -16 6 -29 -10 -12 -36 -15 -126 -15 l-114 0 0 34
c0 52 36 76 114 76 71 0 106 18 106 55 0 13 5 27 11 30 43 27 276 27 364 1z
m2259 -12 c12 -31 7 -144 -6 -144 -35 1 -58 42 -58 103 0 24 3 47 7 50 12 13
51 7 57 -9z m-1684 -94 c23 -23 24 -30 8 -65 -7 -16 -19 -25 -35 -25 -21 0
-23 4 -23 48 0 67 14 78 50 42z m271 -42 c36 -20 39 -25 39 -65 0 -29 -12 -69
-37 -123 -21 -43 -41 -79 -44 -80 -4 0 -12 13 -19 30 -14 35 -4 260 12 260 6
0 28 -10 49 -22z m3407 10 c10 -13 15 -46 13 -80 -1 -22 -29 -23 -59 -2 -26
18 -28 41 -6 72 17 25 36 28 52 10z m-3542 -54 c-9 -35 -88 -153 -103 -153
-17 -1 -27 42 -19 83 9 45 61 96 99 96 26 0 29 -2 23 -26z m1729 2 c23 -35 2
-66 -42 -66 -38 0 -42 16 -16 61 21 35 37 37 58 5z m2495 -40 c30 -16 58 -34
62 -40 12 -17 8 -86 -6 -131 -15 -46 -24 -35 -28 34 -3 42 -7 48 -83 109 -94
77 -108 101 -43 75 24 -9 68 -30 98 -47z m4533 52 c12 -7 55 -15 96 -18 l74
-5 16 -44 c9 -24 35 -66 59 -92 46 -51 50 -64 26 -73 -28 -11 -32 -8 -128 84
-111 105 -136 113 -162 53 -14 -32 -15 -63 -10 -201 6 -143 5 -163 -9 -169
-19 -7 -69 38 -90 81 -8 15 -20 55 -27 86 -20 97 20 232 85 286 33 27 40 29
70 12z m-2073 -28 c15 -36 39 -172 33 -182 -17 -29 -63 18 -63 64 0 32 -4 33
-64 13 -35 -12 -50 -13 -70 -4 -52 24 -27 49 49 49 37 0 45 4 50 23 9 30 33
67 44 67 5 0 14 -14 21 -30z m-7554 -59 c9 -45 19 -55 68 -66 50 -11 62 -28
24 -33 -62 -10 -148 52 -148 106 0 41 47 35 56 -7z m3294 10 c0 -11 -4 -23
-10 -26 -24 -15 -7 -44 45 -79 77 -51 106 -99 113 -185 2 -40 0 -71 -5 -74 -6
-4 -35 -13 -64 -21 -30 -8 -80 -22 -112 -30 -32 -9 -84 -16 -117 -16 -52 0
-62 3 -90 31 -29 29 -37 65 -15 63 13 0 130 22 176 34 48 12 92 35 96 49 6 17
-51 50 -98 58 -42 7 -99 -16 -99 -40 0 -8 -4 -15 -10 -15 -18 0 -22 49 -11
115 7 36 9 82 5 101 l-7 36 80 -7 c66 -6 81 -5 92 9 18 22 31 20 31 -3z m5263
-25 c54 -24 87 -62 87 -101 0 -39 -17 -55 -92 -89 -58 -27 -78 -48 -78 -85 0
-28 29 -41 92 -41 l53 0 17 -43 c71 -178 -16 -317 -201 -317 -45 0 -127 17
-173 35 -11 4 -18 0 -23 -14 -8 -25 9 -59 46 -90 16 -13 29 -30 29 -37 0 -8
-17 -31 -38 -52 -70 -70 -181 -80 -210 -18 -17 34 -10 43 23 28 14 -7 41 -12
60 -12 l35 0 0 146 0 146 28 -5 c15 -2 54 -13 87 -22 63 -19 228 -26 278 -12
20 5 27 14 27 31 0 35 -26 91 -62 131 -32 37 -139 117 -170 128 -22 8 -32 46
-20 78 10 24 20 31 98 64 42 17 72 54 60 74 -10 15 -74 14 -162 -4 -90 -19
-189 -17 -189 4 0 23 67 69 125 86 70 19 219 14 273 -9z m-5709 -66 c18 -46 6
-90 -25 -90 -27 0 -32 16 -24 76 8 65 26 71 49 14z m2425 -6 c44 -56 18 -244
-33 -244 -12 0 -14 24 -13 135 2 144 8 158 46 109z m5230 12 c12 -15 10 -29
-21 -138 -6 -20 -8 -53 -5 -72 5 -32 3 -35 -22 -41 -21 -4 -31 -16 -42 -47
-18 -48 -34 -59 -44 -28 -4 14 8 47 41 106 45 85 46 88 40 151 -4 35 -4 68 -1
73 9 15 41 12 54 -4z m-2681 -2 c29 -8 28 -33 -5 -94 l-28 -50 -77 0 c-42 0
-79 4 -82 8 -9 15 34 90 61 108 45 29 90 39 131 28z m-6535 -29 c48 -20 77
-53 77 -87 0 -23 -4 -28 -25 -28 -17 0 -25 5 -25 18 0 31 -18 41 -58 30 -21
-6 -41 -13 -47 -17 -5 -4 -29 -13 -51 -20 -34 -11 -48 -11 -78 0 -45 16 -45
31 -1 66 65 52 142 66 208 38z m1403 -90 c13 -20 15 -38 10 -83 -3 -31 -9 -87
-12 -124 -7 -67 -16 -84 -28 -50 -40 117 -45 159 -24 237 14 51 30 57 54 20z
m-300 -53 c1 -29 7 -59 12 -65 5 -7 13 -26 16 -43 6 -25 2 -34 -21 -55 -159
-139 -211 -169 -291 -169 -32 0 -70 6 -85 13 -50 23 -47 110 4 149 93 71 99
79 99 119 l0 39 80 0 c47 0 80 -4 80 -10 0 -5 5 -10 10 -10 18 0 10 29 -11 40
-41 23 1 50 70 47 34 -2 34 -2 37 -55z m555 21 c12 -32 8 -85 -6 -90 -24 -7
-49 25 -48 60 1 20 4 40 8 46 12 20 35 11 46 -16z m-1507 -49 c16 -42 5 -67
-50 -120 -31 -30 -58 -54 -60 -54 -2 0 -10 13 -19 29 -15 30 -8 68 20 112 28
43 97 64 109 33z m8284 -67 c25 -20 11 -78 -31 -124 -48 -53 -87 -3 -48 62 12
20 21 44 21 54 0 10 3 20 6 24 7 6 33 -1 52 -16z m-6932 -125 c-6 -41 -22 -62
-48 -62 -28 0 -32 24 -9 69 12 22 21 48 21 58 1 15 4 14 21 -7 16 -18 19 -33
15 -58z m6464 55 c39 -17 87 -65 146 -144 30 -40 67 -86 84 -101 29 -28 112
-62 151 -62 23 0 24 -13 3 -30 -22 -19 -96 -16 -140 5 -35 16 -152 126 -197
183 -17 22 -20 22 -40 9 -29 -19 -36 -99 -11 -124 15 -16 15 -18 -2 -30 -24
-17 -99 -17 -160 2 -58 17 -130 20 -140 4 -3 -6 -1 -29 6 -50 11 -31 11 -41 0
-54 -15 -18 -13 -19 35 -47 11 -7 64 -12 121 -13 109 -1 134 -10 134 -50 0
-18 -8 -23 -47 -31 -42 -8 -48 -12 -51 -36 -4 -32 -7 -31 113 -32 76 -1 80 -2
83 -25 4 -27 -12 -41 -50 -41 -61 0 -77 -27 -33 -56 20 -13 37 -15 77 -10 29
4 57 11 63 16 16 13 88 16 92 4 10 -29 -66 -85 -156 -113 -44 -14 -218 -14
-262 0 -93 30 -159 86 -159 134 0 25 0 25 104 25 83 0 105 3 110 15 14 39 -20
64 -119 89 -123 30 -146 39 -177 68 -29 27 -30 31 -26 92 6 75 36 134 81 162
44 26 118 54 144 54 29 0 36 14 38 74 2 47 5 53 51 93 52 46 72 49 134 20z
m-1194 -14 c27 -14 51 -28 53 -30 3 -2 -3 -11 -12 -21 -16 -16 -20 -15 -62 7
-25 13 -45 27 -45 32 0 4 -3 14 -6 23 -9 24 16 20 72 -11z m-7580 -7 c4 -11
-35 -93 -40 -84 -1 2 -14 20 -29 41 l-28 37 23 9 c34 14 68 13 74 -3z m2107
-117 c15 -24 -15 -82 -58 -115 -40 -30 -38 -41 10 -50 19 -3 35 -9 34 -13 0
-3 -14 -17 -30 -30 -27 -21 -33 -22 -55 -11 -43 24 -47 112 -4 119 31 4 37 13
45 74 6 41 10 48 27 45 12 -2 26 -10 31 -19z m-1976 -14 c8 -23 -26 -55 -60
-55 -26 0 -29 -3 -22 -22 17 -54 17 -75 1 -81 -30 -12 -46 3 -46 43 0 21 -7
43 -15 50 -20 16 -19 33 3 52 33 30 129 38 139 13z m594 -38 c40 -26 69 -79
69 -123 0 -36 -30 -79 -60 -87 -40 -10 -34 38 11 88 22 25 11 41 -46 70 -41
21 -57 51 -33 66 19 12 21 12 59 -14z m1775 -33 c7 -38 -6 -57 -32 -47 -7 3
-38 -2 -68 -11 -55 -16 -86 -13 -86 8 0 22 24 36 62 36 47 0 86 17 94 42 8 26
22 13 30 -28z m1961 1 c72 -30 99 -86 71 -148 -24 -51 -73 -48 -135 9 -27 25
-46 35 -68 34 -49 -3 -51 -2 -64 48 -17 61 -16 66 11 74 33 10 144 0 185 -17z
m-1834 -1 c42 -22 42 -21 27 -39 -16 -19 -88 -20 -112 -1 -18 13 -23 37 -11
49 12 12 63 7 96 -9z m1525 -29 c31 -41 33 -49 29 -102 -6 -69 -16 -113 -30
-131 -8 -10 -17 -7 -41 16 -17 16 -62 51 -101 77 -38 27 -95 69 -125 94 -30
25 -57 46 -59 48 -3 2 1 9 8 16 7 7 58 14 139 18 70 3 132 6 137 7 6 1 25 -19
43 -43z m497 25 c3 -5 18 -10 32 -10 24 0 25 -2 18 -32 -4 -18 -7 -37 -6 -43
0 -5 4 -36 7 -69 5 -47 4 -58 -7 -54 -23 8 -50 64 -59 125 -4 32 -11 66 -15
76 -8 19 19 25 30 7z m-884 -81 c23 -39 48 -73 56 -76 7 -3 13 -11 13 -19 0
-27 -164 -6 -254 31 -48 20 -116 73 -116 90 0 24 49 37 120 32 36 -2 76 -1 90
3 44 14 48 11 91 -61z m1137 -34 c-3 -53 -6 -60 -25 -63 -31 -5 -45 28 -38 90
10 82 12 84 41 57 22 -21 25 -30 22 -84z m-1542 64 c20 -11 45 -30 56 -42 27
-33 70 -128 64 -144 -8 -21 -44 2 -52 33 -6 22 -10 24 -43 19 -56 -10 -82 -26
-88 -57 -6 -31 -24 -36 -48 -12 -16 16 -13 46 7 71 14 18 -8 52 -40 59 -35 9
-62 32 -62 55 0 41 144 54 206 18z m-1086 -23 c0 -29 -16 -36 -81 -36 -53 0
-61 10 -32 42 11 13 30 18 65 18 44 0 48 -2 48 -24z m745 -11 c11 -3 36 -28
55 -56 19 -29 40 -58 45 -66 7 -11 4 -20 -15 -35 -43 -35 -129 -12 -258 70
-59 37 -67 67 -23 88 22 11 141 10 196 -1z m2200 -31 c19 -28 62 -190 53 -200
-3 -2 -26 -1 -52 2 -47 7 -47 7 -39 38 8 36 8 60 -2 140 -9 67 4 73 40 20z
m2053 -59 c-2 -48 -7 -85 -13 -85 -6 0 -11 37 -13 85 -2 72 0 85 13 85 13 0
15 -13 13 -85z m-4656 36 c80 -35 118 -87 139 -190 10 -48 10 -64 1 -73 -20
-20 -46 4 -52 48 l-5 39 -63 7 c-65 7 -92 20 -92 44 0 13 -21 18 -108 28 -59
6 -92 29 -92 64 0 24 6 30 38 39 65 18 185 15 234 -6z m3395 -11 c18 -35 17
-144 -1 -159 -12 -10 -19 -8 -37 10 -18 18 -20 29 -15 67 3 24 6 60 6 79 0 27
4 34 17 31 10 -2 23 -14 30 -28z m-3782 -54 c48 -17 85 -58 85 -93 0 -15 -10
-46 -21 -71 -20 -40 -23 -42 -37 -28 -15 15 -15 19 1 45 16 27 16 29 -8 51
-25 24 -32 24 -172 4 -37 -5 -43 -3 -58 20 -9 14 -15 33 -13 43 7 37 147 55
223 29z m7020 -16 c29 -20 29 -20 8 -26 -23 -6 -26 -13 -38 -71 -4 -18 -10
-33 -15 -33 -20 0 -37 114 -20 135 16 20 29 19 65 -5z m55 -45 c6 -8 9 -19 5
-25 -7 -11 -34 15 -35 33 0 12 17 8 30 -8z m-2203 -53 c10 -6 8 -20 -7 -60
-11 -29 -20 -62 -20 -73 0 -12 -5 -19 -12 -17 -13 5 -24 118 -14 144 6 15 34
18 53 6z m-6576 -79 c14 -36 -2 -77 -31 -81 -28 -5 -40 12 -40 59 0 42 5 49
37 49 16 0 27 -8 34 -27z m3925 -14 c43 -14 80 -20 105 -16 49 6 53 -15 7 -39
-28 -14 -38 -15 -87 -3 -31 8 -86 14 -123 13 -70 0 -72 2 -35 44 25 27 50 28
133 1z m-876 -20 c74 -18 240 -10 318 15 33 11 28 -17 -9 -48 -39 -33 -70 -41
-111 -27 -18 6 -67 12 -110 13 l-76 2 -51 -47 c-37 -35 -58 -47 -81 -47 -16 0
-30 1 -30 3 0 2 13 28 29 59 15 31 31 66 34 78 4 18 10 20 29 14 13 -4 39 -11
58 -15z m1392 -15 c42 -29 45 -36 23 -54 -31 -25 -120 14 -108 48 15 39 35 40
85 6z m-1674 -64 l3 -63 -33 9 c-41 11 -303 10 -343 -1 -16 -4 -52 -25 -79
-47 -57 -45 -99 -49 -104 -10 -2 14 3 24 15 28 10 4 33 21 51 38 33 31 34 31
170 37 151 8 157 9 240 50 31 16 62 27 67 25 6 -1 11 -31 13 -66z m1988 54
c34 -9 54 -21 54 -30 0 -25 -26 -26 -70 -3 -39 21 -44 21 -55 6 -9 -12 -14
-14 -23 -5 -17 17 -15 36 6 41 29 8 32 7 88 -9z m-1188 -68 c77 1 81 0 60 -14
-38 -25 -49 -45 -42 -74 5 -25 3 -28 -21 -28 -21 0 -30 8 -47 46 -18 42 -22
46 -49 40 -21 -4 -31 -1 -38 13 -13 24 -4 32 28 23 14 -4 63 -6 109 -6z
m-1614 -66 c33 -11 83 -20 112 -20 50 0 53 -2 63 -32 6 -17 18 -40 27 -49 15
-17 12 -59 -5 -59 -4 0 -24 18 -45 40 -40 43 -56 49 -76 25 -18 -22 -36 -19
-86 16 -45 30 -61 32 -109 14 -16 -7 -18 -6 -7 6 6 7 12 25 12 39 0 47 21 51
114 20z m-223 -40 c29 -16 23 -48 -13 -70 -18 -11 -41 -20 -50 -20 -24 0 -48
28 -48 56 0 18 7 25 28 30 15 3 32 7 37 9 18 6 26 5 46 -5z m3042 -7 c32 -4
37 -9 37 -32 0 -14 -9 -51 -20 -81 -11 -30 -20 -76 -20 -102 0 -43 -3 -48 -26
-54 -14 -4 -101 -4 -192 0 -662 24 -880 18 -1048 -29 -7 -2 -7 -25 3 -77 28
-156 35 -219 46 -391 13 -201 14 -201 89 -191 62 8 86 -1 90 -33 l3 -26 90 2
c50 1 106 7 127 13 45 13 77 6 118 -28 30 -26 32 -26 90 -14 33 7 86 13 117
14 57 1 58 0 61 -28 l4 -29 61 7 c101 10 158 -18 129 -64 -22 -36 -15 -73 18
-95 31 -21 65 -63 57 -71 -3 -3 -65 0 -138 7 -74 6 -241 14 -371 16 -236 5
-238 5 -238 -16 0 -25 55 -51 106 -51 39 0 84 -18 84 -34 0 -7 -7 -22 -16 -34
-20 -28 -62 -29 -117 0 -23 12 -60 27 -82 33 -35 11 -40 16 -37 39 3 24 0 26
-37 26 -30 0 -43 5 -51 19 -28 54 -84 63 -245 40 -165 -24 -204 -29 -280 -39
-130 -18 -449 -19 -530 -3 -145 29 -154 29 -220 -11 -67 -40 -86 -44 -106 -20
-21 25 -122 15 -271 -28 -53 -15 -174 -16 -189 0 -22 21 -76 14 -126 -18 -37
-24 -58 -30 -100 -30 -38 0 -53 4 -53 13 0 28 35 46 95 49 76 4 80 23 12 55
-53 26 -67 47 -45 70 14 13 18 13 41 -1 24 -16 26 -16 51 7 15 14 37 27 49 30
12 3 48 12 80 21 66 18 77 15 77 -20 0 -21 4 -24 36 -24 44 0 147 17 229 37
86 21 88 21 95 -7 4 -17 14 -26 30 -28 24 -4 160 55 160 69 0 4 -13 20 -29 35
-28 27 -32 54 -6 54 7 0 25 -16 39 -35 30 -39 33 -40 60 -20 18 13 18 15 -1
42 -11 15 -23 36 -26 45 -8 21 11 34 26 19 20 -20 47 -12 98 29 28 22 62 43
75 46 25 6 31 19 14 29 -14 8 -13 101 1 128 7 11 12 46 13 77 1 79 -27 129
-139 240 -85 85 -94 91 -115 80 -27 -14 -88 -10 -192 15 l-78 18 -49 -26 c-49
-25 -51 -25 -114 -11 -79 18 -123 12 -354 -55 -100 -29 -139 -28 -147 3 -7 28
7 66 42 113 13 18 26 50 29 73 4 24 11 40 19 40 15 0 16 -7 14 -93 -2 -61 15
-81 49 -60 24 15 25 40 2 88 -26 55 -26 65 -2 65 23 0 36 -16 45 -53 9 -38 29
-43 57 -15 13 13 44 30 69 38 56 17 97 45 105 70 9 28 17 26 84 -20 32 -22 67
-40 77 -40 11 0 38 18 62 40 31 28 43 48 45 72 3 31 5 33 37 29 62 -9 132 -5
268 12 162 21 213 15 267 -34 17 -15 28 -16 68 -9 63 12 85 25 89 52 4 28 44
37 172 37 50 1 127 6 171 13 l82 12 46 -34 c57 -40 75 -66 83 -120 8 -50 16
-55 41 -27 25 28 34 63 23 92 -8 21 -6 22 93 34 56 7 116 15 132 18 17 3 66 9
110 13 44 5 106 12 137 16 64 8 70 4 103 -59 23 -45 50 -64 91 -67 47 -3 49
-2 63 35 9 27 18 35 37 35 22 0 24 -4 24 -49 0 -33 5 -51 14 -54 28 -11 54 6
76 49 21 40 60 68 67 48 18 -50 29 -59 78 -62 70 -5 125 15 125 43 0 31 -22
47 -75 53 -45 5 -55 17 -32 41 7 8 23 10 42 6 17 -3 47 -9 68 -12z m3932 -23
c9 -10 20 -40 23 -65 l5 -46 -34 3 -34 3 -3 63 c-3 68 9 80 43 42z m-3568
-294 c-9 -112 -28 -136 -64 -76 -9 17 -22 30 -27 30 -5 0 -6 3 -2 7 4 4 17 8
29 8 19 0 23 7 27 55 3 30 9 61 14 69 17 27 29 -20 23 -93z m3050 -84 c-5 -44
-30 -83 -44 -69 -10 11 -17 133 -8 154 6 16 9 15 32 -11 21 -25 24 -37 20 -74z
m-2236 50 c-24 -45 -91 -76 -128 -59 -42 19 -22 40 58 61 74 20 82 20 70 -2z
m2404 -2 c16 -17 17 -32 10 -145 -6 -110 -9 -125 -25 -125 -40 0 -46 27 -42
198 2 82 4 92 20 92 11 0 27 -9 37 -20z m-5964 -120 c23 -27 46 -50 51 -50 5
0 16 16 24 35 8 19 21 35 29 35 9 0 32 -19 53 -42 20 -23 63 -67 95 -97 31
-31 57 -64 57 -73 0 -10 -16 -28 -35 -40 l-35 -23 0 -86 c0 -53 -5 -90 -12
-97 -7 -7 -38 -12 -70 -12 -44 0 -72 -7 -111 -26 -55 -28 -117 -35 -141 -15
-12 10 -8 18 27 49 23 21 59 50 80 65 l37 28 0 79 c0 101 -9 123 -67 163 -65
44 -91 71 -99 101 -10 40 1 56 40 56 29 0 41 -8 77 -50z m1311 28 c12 -7 34
-23 49 -36 14 -13 45 -36 67 -53 l41 -30 16 25 c17 25 13 66 -6 66 -5 0 -9 7
-9 16 0 39 130 -17 147 -63 4 -9 -1 -19 -10 -24 -9 -5 -22 -15 -29 -22 -7 -7
-38 -30 -68 -52 -90 -65 -153 -123 -207 -189 -17 -21 -35 -36 -40 -33 -16 10
-32 107 -37 222 -3 61 -8 127 -12 148 l-7 37 42 0 c23 0 51 -6 63 -12z m-1504
-25 c-4 -37 -40 -53 -133 -60 -63 -5 -75 -3 -81 11 -13 34 15 47 94 44 62 -2
77 1 86 15 17 27 38 21 34 -10z m-512 -108 c19 -45 18 -89 -2 -106 -24 -20
-47 15 -40 61 3 19 6 45 6 58 0 33 19 27 36 -13z m454 -100 c0 -93 -6 -101
-55 -69 -28 18 -45 12 -45 -18 0 -16 -4 -19 -22 -14 -79 23 -87 21 -203 -49
-38 -23 -113 -34 -128 -19 -9 9 23 75 53 108 42 47 139 87 300 122 41 9 80 17
85 19 6 2 11 4 13 4 1 1 2 -37 2 -84z m6042 43 c15 -12 15 -17 0 -64 -23 -69
-42 -61 -42 17 0 62 9 72 42 47z m-2669 -32 c34 -26 7 -117 -45 -150 -22 -13
-35 -1 -19 18 6 8 14 38 17 67 9 85 13 91 47 65z m478 -22 c58 -16 129 -65
129 -88 0 -30 -210 -49 -265 -24 -22 10 -25 17 -25 59 0 35 5 51 18 58 25 15
78 13 143 -5z m-751 -125 c0 -55 -9 -73 -38 -81 -21 -5 -25 137 -5 158 14 13
17 13 29 -3 7 -10 14 -43 14 -74z m-3739 -35 c7 -9 13 -37 13 -62 1 -38 -2
-47 -18 -50 -28 -6 -46 25 -46 80 0 40 3 48 19 48 10 0 24 -7 32 -16z m257
-164 c12 -12 22 -32 22 -45 0 -23 -2 -24 -25 -13 -19 9 -28 9 -37 0 -18 -18
-68 -15 -68 4 0 18 56 74 74 74 7 0 22 -9 34 -20z m3331 -39 c64 -11 70 -71 8
-71 -44 0 -87 33 -87 66 0 22 3 24 23 18 12 -4 37 -10 56 -13z m-379 -94 c0
-39 -27 -67 -65 -67 -38 0 -65 28 -65 67 0 22 4 23 65 23 61 0 65 -1 65 -23z
m516 -114 c8 -53 -17 -103 -42 -82 -10 8 -14 35 -14 98 l1 86 24 -30 c14 -16
27 -49 31 -72z m-356 7 c22 -41 -39 -90 -110 -90 -41 0 -82 36 -78 69 3 25 4
26 65 23 34 -2 70 1 80 7 25 15 31 14 43 -9z m-1233 -91 c20 -8 23 -15 23 -69
0 -33 -3 -60 -7 -60 -4 0 -44 18 -88 40 -77 37 -105 65 -105 102 0 12 138 2
177 -13z m674 -21 c46 -26 69 -51 69 -78 0 -37 -9 -42 -39 -21 -51 35 -100 51
-153 51 -30 0 -58 3 -61 6 -10 10 12 44 36 55 29 12 118 4 148 -13z m-1366 -4
c23 -17 13 -42 -27 -62 -21 -10 -37 -9 -84 1 -32 7 -59 18 -61 24 -2 6 6 21
18 32 28 26 122 29 154 5z m351 -1 c3 -10 9 -25 14 -35 15 -27 -13 -42 -63
-33 -57 10 -108 11 -129 1 -15 -7 -18 -3 -18 22 0 45 31 61 118 61 61 1 74 -2
78 -16z m1217 -27 c0 -39 -14 -58 -28 -37 -3 6 -14 11 -23 11 -36 0 -45 15
-27 44 14 21 25 26 48 24 28 -3 30 -6 30 -42z m-1908 13 c75 -15 97 -33 93
-73 -3 -28 -7 -31 -40 -34 -31 -3 -44 3 -78 34 -36 32 -44 36 -61 26 -24 -16
-29 -15 -29 3 0 29 23 65 39 61 9 -3 43 -10 76 -17z m-219 -61 c51 -97 56
-110 48 -118 -5 -5 -34 10 -67 36 -64 48 -112 57 -141 28 -21 -20 -39 -8 -30
19 21 70 18 67 98 67 74 0 75 0 92 -32z m3042 -10 c7 -7 12 -26 12 -43 0 -37
-16 -55 -47 -55 -21 0 -23 4 -23 55 0 51 2 55 23 55 13 0 28 -5 35 -12z m2210
-175 c-2 -79 -7 -127 -13 -126 -16 3 -22 52 -17 156 3 75 8 97 18 97 12 0 14
-23 12 -127z m100 -65 c-2 -70 -7 -103 -15 -106 -10 -3 -13 22 -13 102 0 89 3
106 15 106 13 0 15 -16 13 -102z m-92 -434 c22 -51 15 -86 -19 -102 -34 -17
-58 -3 -38 22 6 7 14 37 18 65 3 28 10 51 15 51 5 0 16 -16 24 -36z"/>
<path d="M6528 9623 c-9 -2 -24 -15 -32 -29 l-16 -24 48 0 c49 0 82 20 82 48
0 12 -47 15 -82 5z"/>
<path d="M4414 5407 c-3 -8 -4 -39 -2 -68 l3 -54 38 0 c21 0 43 2 49 6 14 9 4
88 -14 104 -21 20 -68 28 -74 12z"/>
<path d="M3170 5086 c-17 -22 -9 -100 12 -104 24 -5 52 42 44 73 -8 32 -40 50
-56 31z"/>
<path d="M3283 4986 c-26 -23 -27 -26 -11 -42 16 -16 18 -16 24 -1 8 21 50 22
84 2 35 -20 40 -19 40 13 0 39 -17 52 -66 52 -31 0 -51 -7 -71 -24z"/>
<path d="M6814 3386 c-11 -44 -1 -71 27 -74 20 -2 32 4 48 27 l22 31 -33 20
c-43 26 -56 25 -64 -4z"/>
<path d="M4806 2847 c-7 -105 3 -162 28 -154 18 6 44 98 45 158 1 43 -4 60
-19 77 -39 41 -47 30 -54 -81z"/>
<path d="M6454 11648 c3 -13 6 -26 6 -30 0 -23 105 -50 123 -32 9 9 -11 56
-31 70 -9 8 -37 14 -61 14 -40 0 -43 -2 -37 -22z"/>
<path d="M7376 11433 c-3 -4 -6 -19 -6 -35 0 -21 14 -44 50 -82 71 -76 69 -95
-17 -132 -106 -44 -183 -129 -183 -199 0 -33 -11 -32 -63 8 -89 68 -179 92
-337 91 -161 -1 -200 -15 -200 -72 0 -62 35 -245 57 -299 21 -51 71 -102 114
-114 46 -14 57 -8 42 24 -18 38 -75 180 -85 212 -29 95 -36 130 -26 142 12 15
159 18 204 4 16 -5 49 -14 74 -21 25 -8 86 -33 137 -57 51 -23 96 -43 100 -43
5 0 14 9 20 19 7 11 28 24 47 31 39 13 44 29 21 70 -30 52 -21 65 61 96 42 16
94 44 115 62 33 28 39 40 39 72 0 49 -25 118 -53 148 -31 34 -103 82 -111 75z"/>
</g>
</svg>
