<?xml version="1.0" standalone="no"?>
<!DOCTYPE svg PUBLIC "-//W3C//DTD SVG 20010904//EN"
 "http://www.w3.org/TR/2001/REC-SVG-20010904/DTD/svg10.dtd">
<svg version="1.0" xmlns="http://www.w3.org/2000/svg"
 width="838.000000pt" height="1280.000000pt" viewBox="0 0 838.000000 1280.000000"
 preserveAspectRatio="xMidYMid meet">
<metadata>
Created by potrace 1.15, written by Peter Selinger 2001-2017
</metadata>
<g transform="translate(0.000000,1280.000000) scale(0.100000,-0.100000)"
fill="#000000" stroke="none">
<path d="M1915 12748 c-201 -235 -319 -605 -400 -1248 -16 -126 -24 -159 -78
-300 -16 -45 -21 -87 -26 -225 -3 -93 -10 -176 -14 -182 -5 -7 -21 -13 -36
-13 -31 0 -27 9 -51 -125 -15 -85 -51 -451 -57 -572 -5 -100 -6 -103 -29 -103
-29 0 -30 -17 -9 -101 15 -57 14 -68 -10 -217 -14 -86 -68 -371 -120 -632
-118 -598 -118 -595 -240 -1689 -30 -266 -55 -485 -57 -487 -2 -2 -83 17 -179
40 -223 56 -290 83 -457 187 -22 13 -26 12 -63 -31 -74 -85 -102 -216 -79
-371 13 -91 22 -109 53 -109 11 0 40 -9 63 -21 51 -24 49 -25 202 75 99 65
170 96 220 96 29 0 133 -46 131 -58 0 -4 -32 -33 -69 -65 -142 -118 -185 -229
-142 -367 17 -51 20 -55 66 -72 49 -17 90 -48 108 -81 8 -15 2 -31 -25 -75
-207 -337 -268 -683 -167 -946 6 -16 13 -27 16 -24 2 3 11 58 19 122 16 127
33 168 76 186 81 34 119 -14 119 -151 l0 -86 -31 -7 c-67 -13 -115 -110 -107
-217 3 -39 5 -42 53 -60 28 -10 58 -28 67 -40 16 -19 16 -23 3 -42 -8 -12 -15
-40 -15 -62 0 -23 -5 -46 -11 -52 -7 -7 0 -18 23 -38 47 -40 89 -55 152 -55
l55 0 37 70 c59 113 135 178 227 195 20 4 37 11 37 15 0 4 -11 62 -25 128 -16
77 -25 154 -25 212 l0 91 30 -16 c44 -23 60 -63 67 -173 3 -53 10 -103 16
-110 16 -20 53 -14 157 27 137 54 169 58 227 30 l48 -23 -48 -11 c-56 -12 -98
-43 -76 -55 8 -5 66 -13 130 -18 131 -11 175 -25 116 -36 -69 -13 -52 -65 28
-85 25 -6 99 -16 165 -21 114 -9 180 -26 194 -48 3 -5 -20 -19 -52 -30 -87
-32 -97 -33 -126 -22 -39 15 -23 -5 27 -34 62 -35 110 -39 248 -20 68 9 147
14 176 11 51 -5 113 -33 113 -50 0 -4 -24 -32 -53 -61 -69 -69 -128 -90 -239
-84 -90 5 -96 -4 -26 -40 93 -48 291 -21 462 63 38 19 70 34 72 32 1 -1 9 -31
18 -66 19 -76 44 -118 92 -160 46 -41 59 -39 62 7 5 66 22 110 53 136 54 46
66 44 173 -28 155 -106 319 -181 566 -261 131 -42 433 -125 455 -125 8 0 15
-4 15 -10 0 -5 -12 -10 -27 -10 -65 0 -143 -39 -143 -70 0 -5 15 -10 33 -10
47 0 128 -24 203 -59 69 -32 188 -111 179 -119 -2 -2 -71 2 -152 9 -81 8 -227
14 -323 13 -145 0 -190 -4 -264 -22 -168 -42 -286 -130 -358 -267 -35 -67 -39
-71 -85 -83 -95 -26 -213 -97 -213 -129 0 -7 26 -66 59 -131 88 -176 94 -158
-56 -165 -201 -8 -297 -55 -328 -160 -17 -58 -20 -100 -5 -95 5 2 29 32 52 68
51 77 96 110 149 110 l38 0 -49 -50 c-51 -52 -80 -114 -62 -132 7 -7 14 -4 21
10 37 68 165 84 268 32 80 -40 147 -100 167 -150 15 -37 15 -43 0 -80 -33 -83
-171 -175 -339 -226 -77 -23 -109 -27 -220 -28 -130 -1 -130 -1 -220 38 -85
37 -97 39 -210 44 -128 5 -235 -10 -356 -48 -119 -38 -116 -36 -176 -138 -31
-53 -72 -113 -91 -134 -34 -38 -35 -41 -39 -141 -3 -78 -1 -107 10 -122 14
-18 16 -15 27 40 29 142 107 230 251 280 l39 14 0 -45 c0 -57 -14 -90 -84
-198 -71 -107 -106 -181 -106 -222 0 -17 11 -64 25 -105 14 -41 30 -108 36
-149 17 -130 34 -152 94 -123 38 18 42 25 21 42 -43 36 -47 209 -7 293 33 68
67 99 100 91 67 -16 133 -47 148 -69 13 -21 14 -29 2 -56 -9 -23 -13 -70 -11
-155 l3 -123 -45 0 c-59 0 -85 -24 -70 -64 5 -14 7 -14 22 0 16 17 46 15 119
-7 30 -9 51 -10 70 -3 27 9 28 12 25 65 -3 51 -1 60 29 93 49 56 142 104 253
130 l29 7 -6 -53 c-4 -30 -16 -80 -26 -111 -23 -65 -24 -64 63 -42 133 35 260
127 391 284 32 39 60 69 63 67 2 -2 -6 -22 -17 -45 -23 -43 -27 -86 -11 -96 6
-4 54 17 108 46 259 140 378 192 307 134 -25 -21 -27 -25 -11 -25 11 0 39 12
63 26 51 29 63 26 39 -10 -20 -32 -51 -48 -142 -75 -66 -20 -104 -44 -104 -68
0 -18 123 8 200 43 67 31 90 50 216 179 78 80 144 145 148 145 15 0 4 -59 -17
-90 -34 -50 -38 -67 -21 -81 18 -14 13 -19 71 79 38 64 53 76 53 43 0 -31 -18
-71 -50 -111 -17 -21 -30 -41 -30 -44 0 -10 109 66 162 113 60 53 108 147 108
210 0 26 -16 100 -36 166 -41 140 -43 211 -5 248 19 19 23 20 31 7 5 -8 10
-34 10 -57 0 -31 4 -43 15 -43 22 0 51 36 64 80 10 34 34 60 55 60 12 0 6 -56
-11 -102 -9 -26 -13 -51 -9 -55 16 -17 100 43 156 112 55 68 60 71 94 67 59
-7 87 6 154 74 34 35 67 64 71 64 5 0 11 -21 15 -47 11 -87 46 -143 142 -229
182 -163 200 -186 227 -295 l14 -53 59 -11 c81 -15 123 -39 140 -82 22 -52 7
-65 -75 -61 -64 3 -66 2 -69 -23 -7 -63 83 -83 243 -54 53 9 98 15 100 13 9
-9 -13 -27 -59 -49 -58 -28 -79 -54 -56 -70 23 -15 97 -3 180 30 41 17 94 30
117 31 49 0 53 5 67 83 8 42 17 64 33 74 20 14 25 10 97 -62 94 -95 159 -213
134 -243 -31 -34 -47 -80 -67 -188 -23 -118 -36 -172 -49 -191 -5 -7 -34 -18
-66 -24 -120 -22 -207 -82 -269 -185 -28 -48 -34 -53 -57 -46 -54 15 -138 5
-184 -22 -143 -84 -234 -288 -300 -678 -14 -81 43 -14 129 151 53 101 96 143
162 156 31 6 31 6 43 -47 10 -45 9 -71 -9 -177 -23 -137 -26 -212 -10 -243 13
-24 67 -48 109 -48 l30 0 -6 68 c-9 92 13 169 60 210 42 37 133 72 186 72 l40
0 0 -97 c0 -107 17 -155 60 -166 20 -5 27 5 67 91 25 53 54 109 64 123 l19 27
72 -23 c115 -36 187 -41 236 -16 56 29 114 99 153 186 l34 75 43 0 c98 0 219
105 293 254 65 132 58 186 -36 302 -62 75 -63 87 -21 134 59 65 73 105 86 235
7 66 18 135 26 154 12 28 12 37 2 51 -7 9 -28 36 -45 60 -40 52 -45 95 -10 84
43 -13 92 -42 120 -71 26 -29 28 -34 30 -144 1 -81 -2 -121 -12 -138 l-13 -24
31 23 c18 12 44 41 59 63 24 37 27 50 27 131 l0 90 67 55 c37 31 79 73 93 93
l25 37 -21 47 c-29 60 -79 95 -176 123 -218 63 -265 88 -302 164 -13 27 -31
47 -44 51 -12 3 -73 6 -135 6 -120 0 -161 11 -182 50 -25 46 21 53 110 15 59
-25 97 -24 114 3 12 20 -71 77 -200 138 -85 40 -144 75 -169 100 l-39 38 40 9
c52 11 111 -5 206 -54 128 -66 139 -52 42 50 -73 78 -134 121 -269 193 l-92
48 32 34 c35 38 53 93 80 248 9 54 19 98 22 98 2 0 24 -14 49 -31 97 -67 240
-113 386 -124 87 -7 155 1 268 34 36 10 94 23 130 29 311 47 599 330 738 723
55 156 92 375 92 547 0 97 1 98 165 180 135 67 167 93 195 154 31 69 28 74
-41 81 -33 3 -63 8 -67 12 -12 11 14 40 55 60 62 30 83 53 83 92 0 54 -6 54
-190 1 -47 -14 -104 -28 -128 -31 -61 -7 -53 16 22 67 33 23 61 47 64 54 9 29
-106 1 -230 -56 -47 -22 -89 -38 -92 -34 -3 3 -6 17 -6 31 0 14 -12 64 -25
110 -14 47 -25 99 -25 115 0 27 -36 68 -273 306 -149 152 -375 368 -502 481
-366 327 -514 493 -623 700 -131 246 -164 573 -88 873 33 129 85 226 162 302
86 86 144 108 284 108 97 1 110 -1 170 -30 83 -40 153 -103 219 -199 29 -42
51 -77 50 -79 -94 -64 -217 -183 -272 -263 -26 -38 -27 -43 -17 -89 12 -55 39
-100 105 -174 64 -72 80 -99 68 -111 -6 -6 -49 -11 -96 -12 -95 -2 -123 -15
-95 -44 22 -21 85 -20 161 2 31 9 67 15 79 13 21 -4 20 -7 -22 -48 -31 -30
-70 -55 -120 -75 -87 -35 -99 -58 -33 -63 31 -2 57 5 103 28 71 36 95 34 80
-5 -14 -38 -12 -141 5 -204 18 -70 61 -137 104 -164 l34 -21 -7 24 c-15 47
-19 220 -6 283 21 109 72 192 140 227 34 17 35 17 75 -7 79 -50 133 -117 121
-150 -5 -13 -19 -15 -74 -10 -37 2 -76 8 -87 13 -18 7 -18 6 -6 -9 7 -9 20
-17 28 -17 9 0 50 -15 92 -34 42 -19 95 -37 117 -41 41 -6 42 -6 56 32 9 21
23 74 33 118 9 44 23 91 30 104 l12 25 28 -28 c25 -26 27 -32 21 -82 -3 -30
-9 -79 -12 -109 -6 -47 -4 -55 9 -55 9 0 24 11 33 26 15 21 16 42 10 140 -9
159 12 195 56 96 15 -34 22 -78 27 -178 5 -107 10 -138 24 -151 16 -17 17 -10
16 134 0 103 3 159 12 175 12 22 12 22 29 -17 39 -93 50 -209 25 -269 -14 -32
50 21 70 59 38 69 10 155 -107 327 -56 84 -57 88 -34 88 13 0 45 -16 70 -35
54 -41 62 -43 68 -12 8 41 -11 83 -67 144 -30 34 -55 66 -55 71 0 20 -19 22
-76 7 -32 -8 -73 -15 -91 -15 l-33 0 3 138 c2 136 2 139 -26 181 -24 36 -30
41 -44 30 -12 -10 -14 -25 -9 -65 3 -28 3 -54 0 -57 -11 -11 -194 150 -194
171 0 6 24 0 54 -14 43 -19 59 -22 80 -14 14 5 26 14 26 20 0 25 -32 70 -65
90 -19 12 -44 33 -55 47 -16 21 -23 23 -35 13 -8 -6 -55 -24 -104 -40 -92 -28
-181 -73 -181 -90 0 -6 -6 -10 -12 -10 -7 0 15 27 49 60 70 68 81 94 64 151
-21 69 -65 106 -197 169 -67 32 -157 84 -199 115 -43 31 -96 66 -119 76 -80
36 -311 19 -485 -36 -85 -27 -89 -30 -144 -125 -18 -31 -67 -97 -110 -148
-132 -158 -227 -315 -258 -422 -25 -88 -11 -418 27 -640 44 -253 75 -317 277
-570 119 -148 171 -227 195 -292 13 -37 22 -48 38 -48 23 0 90 -42 111 -69 7
-9 12 -34 11 -55 l-2 -39 119 -84 c281 -196 343 -243 436 -331 115 -110 175
-187 291 -377 107 -175 140 -242 180 -358 26 -78 31 -108 32 -192 1 -103 0
-105 -48 -170 -5 -7 1 -21 18 -40 36 -39 34 -75 -14 -200 -28 -73 -40 -121
-40 -156 0 -50 0 -51 -112 -175 -120 -133 -201 -202 -283 -240 -79 -37 -183
-56 -282 -52 -86 3 -89 4 -163 53 -196 130 -367 342 -560 693 l-73 133 -221
166 c-245 186 -376 272 -507 335 -56 27 -92 51 -98 65 -16 35 -85 106 -190
196 -108 93 -151 153 -151 209 0 33 3 38 23 38 48 0 130 -51 217 -135 81 -78
110 -98 110 -77 0 19 -80 137 -150 222 -84 101 -124 171 -140 243 -10 50 -14
157 -5 157 3 0 22 -7 43 -15 47 -20 79 -50 102 -96 20 -38 60 -178 61 -213 0
-19 1 -18 11 4 14 35 3 274 -15 331 -38 116 -110 199 -191 221 l-45 12 -15 65
c-8 37 -20 116 -27 178 l-12 111 -42 11 c-59 15 -106 50 -135 101 -22 40 -25
60 -31 210 -4 91 -13 185 -20 209 -13 43 -12 44 16 65 17 11 38 29 47 38 19
19 34 65 25 75 -4 3 -35 -2 -71 -11 -71 -18 -94 -14 -106 18 -7 18 5 34 74
101 80 79 112 130 133 214 l8 34 30 -59 c24 -47 30 -72 30 -122 l0 -63 34 36
c31 35 33 40 29 99 -4 68 -43 143 -118 229 -39 43 -40 46 -21 56 11 6 31 11
44 11 14 0 30 7 37 15 11 13 6 15 -34 15 -50 0 -108 20 -122 41 -5 8 -12 68
-15 134 -6 141 -14 162 -100 252 -64 67 -70 85 -55 168 7 33 6 34 -34 45 -53
14 -73 38 -85 103 l-10 52 -55 13 c-99 23 -416 15 -549 -14 -21 -4 -23 -2 -17
20 7 27 -5 42 -58 79 -16 11 -26 27 -26 42 0 14 -2 25 -5 25 -24 0 -76 -34
-95 -61 -13 -19 -32 -44 -43 -56 -19 -22 -20 -22 -56 -4 -97 50 -179 66 -341
66 -85 0 -194 -6 -242 -14 l-87 -14 6 -48 c8 -65 0 -87 -51 -154 -66 -84 -73
-114 -45 -173 18 -36 23 -65 24 -124 0 -95 -9 -107 -61 -79 -21 12 -52 21 -69
21 -16 0 -36 4 -43 9 -7 4 -33 72 -56 149 -45 150 -74 204 -130 247 -55 42
-96 43 -150 5 -127 -91 -160 -239 -86 -379 44 -82 139 -170 232 -215 131 -62
250 -72 373 -33 16 5 25 0 37 -21 15 -26 13 -33 -43 -186 -69 -186 -124 -303
-151 -317 -15 -8 -25 -5 -49 15 -17 14 -40 26 -52 26 -20 0 -20 -1 4 -27 89
-99 201 -160 324 -177 59 -8 110 5 110 29 0 23 54 61 107 76 46 12 130 8 134
-6 2 -5 -45 -36 -105 -69 -363 -197 -602 -487 -660 -800 l-16 -89 -87 7 c-220
15 -499 108 -605 201 l-38 34 52 1 c77 0 159 -34 211 -87 l44 -45 74 32 c40
18 88 43 106 57 37 27 78 88 78 116 0 37 -86 140 -155 185 -34 23 -51 27 -111
27 -83 0 -108 -15 -118 -70 -10 -53 -24 -59 -118 -46 -46 6 -108 13 -138 17
-30 3 -70 12 -88 20 -33 13 -34 15 -28 61 3 27 8 80 11 118 16 186 36 345 139
1100 77 561 82 603 116 945 17 168 41 391 55 495 14 105 32 267 40 360 34 382
56 534 99 672 22 70 25 102 30 313 3 164 12 294 30 430 90 701 100 827 93
1095 -5 196 -32 445 -48 445 -4 0 -24 -19 -44 -42z m2715 -7542 c0 -2 -8 -10
-17 -17 -16 -13 -17 -12 -4 4 13 16 21 21 21 13z m287 -322 c-3 -3 -12 -4 -19
-1 -8 3 -5 6 6 6 11 1 17 -2 13 -5z m343 -88 c0 -2 -8 -10 -17 -17 -16 -13
-17 -12 -4 4 13 16 21 21 21 13z m253 -253 c-7 -2 -19 -2 -25 0 -7 3 -2 5 12
5 14 0 19 -2 13 -5z m20 -70 c-7 -2 -21 -2 -30 0 -10 3 -4 5 12 5 17 0 24 -2
18 -5z m-75 -90 c-10 -2 -28 -2 -40 0 -13 2 -5 4 17 4 22 1 32 -1 23 -4z m65
0 c-7 -2 -19 -2 -25 0 -7 3 -2 5 12 5 14 0 19 -2 13 -5z m275 -50 c-16 -2 -40
-2 -55 0 -16 2 -3 4 27 4 30 0 43 -2 28 -4z m-91 -9 c-3 -3 -12 -4 -19 -1 -8
3 -5 6 6 6 11 1 17 -2 13 -5z m-190 -30 c-3 -3 -12 -4 -19 -1 -8 3 -5 6 6 6
11 1 17 -2 13 -5z m341 -71 c-10 -2 -26 -2 -35 0 -10 3 -2 5 17 5 19 0 27 -2
18 -5z m10 -160 c-10 -2 -26 -2 -35 0 -10 3 -2 5 17 5 19 0 27 -2 18 -5z m99
-9 c-3 -3 -12 -4 -19 -1 -8 3 -5 6 6 6 11 1 17 -2 13 -5z m-1392 -94 c-3 -5
-12 -10 -18 -10 -7 0 -6 4 3 10 19 12 23 12 15 0z m1628 -177 c-7 -2 -21 -2
-30 0 -10 3 -4 5 12 5 17 0 24 -2 18 -5z m-208 -123 c10 -11 16 -20 13 -20 -3
0 -13 9 -23 20 -10 11 -16 20 -13 20 3 0 13 -9 23 -20z m-230 0 c-3 -5 -12
-10 -18 -10 -7 0 -6 4 3 10 19 12 23 12 15 0z m-1 -219 c-2 -3 -12 3 -22 13
-16 17 -16 18 5 5 12 -7 20 -15 17 -18z m109 -88 c-7 -2 -19 -2 -25 0 -7 3 -2
5 12 5 14 0 19 -2 13 -5z m-72 -140 c13 -16 12 -17 -3 -4 -10 7 -18 15 -18 17
0 8 8 3 21 -13z m-290 -310 c13 -16 12 -17 -3 -4 -10 7 -18 15 -18 17 0 8 8 3
21 -13z m872 -420 c-7 -2 -19 -2 -25 0 -7 3 -2 5 12 5 14 0 19 -2 13 -5z
m-352 -40 c13 -16 12 -17 -3 -4 -17 13 -22 21 -14 21 2 0 10 -8 17 -17z m-46
-91 c-3 -3 -11 0 -18 7 -9 10 -8 11 6 5 10 -3 15 -9 12 -12z m666 -149 c13
-16 12 -17 -3 -4 -10 7 -18 15 -18 17 0 8 8 3 21 -13z m-806 -173 c10 -11 16
-20 13 -20 -3 0 -13 9 -23 20 -10 11 -16 20 -13 20 3 0 13 -9 23 -20z m952 4
c-3 -3 -12 -4 -19 -1 -8 3 -5 6 6 6 11 1 17 -2 13 -5z m-690 -70 c-3 -3 -12
-4 -19 -1 -8 3 -5 6 6 6 11 1 17 -2 13 -5z m14 -231 c13 -16 12 -17 -3 -4 -10
7 -18 15 -18 17 0 8 8 3 21 -13z m690 -100 c13 -16 12 -17 -3 -4 -17 13 -22
21 -14 21 2 0 10 -8 17 -17z m-204 -29 c-3 -3 -12 -4 -19 -1 -8 3 -5 6 6 6 11
1 17 -2 13 -5z m150 -320 c-3 -3 -12 -4 -19 -1 -8 3 -5 6 6 6 11 1 17 -2 13
-5z m-854 -501 c-7 -2 -19 -2 -25 0 -7 3 -2 5 12 5 14 0 19 -2 13 -5z m632
-51 c-3 -3 -11 0 -18 7 -9 10 -8 11 6 5 10 -3 15 -9 12 -12z"/>
<path d="M4720 7222 c0 -73 19 -93 40 -43 17 42 10 75 -17 79 -21 3 -23 -1
-23 -36z"/>
<path d="M6270 6142 c0 -19 6 -32 18 -36 9 -3 22 -8 28 -11 7 -4 9 6 5 32 -5
29 -11 39 -29 41 -18 3 -22 -1 -22 -26z"/>
</g>
</svg>
